<svg width="252" height="252" viewBox="0 0 252 252" fill="none" xmlns="http://www.w3.org/2000/svg">
<path d="M192.831 47.2491C194.436 47.2491 195.736 45.9832 195.736 44.4218C195.736 42.8603 194.436 41.5945 192.831 41.5945C191.226 41.5945 189.926 42.8603 189.926 44.4218C189.926 45.9832 191.226 47.2491 192.831 47.2491Z" fill="#FFEBA6"/>
<path d="M173.553 57.4865C173.553 57.4865 184.659 45.27 185.714 45.7142C186.769 46.1585 193.211 55.2098 193.211 55.2098C193.211 55.2098 201.096 46.7138 201.818 47.2135C202.54 47.7133 202.984 48.8239 202.984 48.8239L202.207 58.3195L191.489 57.4865L180.05 57.7086L173.553 57.4865Z" fill="#C4F1D3"/>
<path d="M188.77 22.4301C188.683 22.4223 188.594 22.4233 188.505 22.4352C188.34 22.4573 188.182 22.5365 188.029 22.6439C187.068 22.8211 186.088 23.2867 185.115 23.9349C183.533 24.9893 181.945 26.5334 180.438 28.1883C178.93 29.8432 177.504 31.6114 176.262 33.1091C175.035 34.5892 173.976 35.8095 173.252 36.3697C172.734 36.422 172.216 36.4808 171.698 36.5543L171.565 36.5732L171.49 36.6866C170.853 37.6427 170.31 39.4088 169.822 41.6246C169.334 43.8404 168.918 46.4927 168.617 49.1402C168.316 51.7877 168.13 54.429 168.104 56.6293C168.079 58.8295 168.192 60.5618 168.572 61.5123C168.63 61.6574 168.733 61.7156 168.819 61.7588C168.905 61.8019 168.996 61.8268 169.101 61.8524C169.312 61.9036 169.58 61.9401 169.91 61.9692C170.57 62.0274 171.474 62.0548 172.555 62.0568C174.718 62.0602 177.583 61.9697 180.512 61.8395C186.372 61.579 192.47 61.1638 193.761 61.0347C194.185 60.9921 195.044 61.0678 196.065 61.1971C197.086 61.3262 198.286 61.5037 199.471 61.6446C200.655 61.7856 201.823 61.8908 202.802 61.8722C203.78 61.8536 204.581 61.7515 205.051 61.2813C205.203 61.1292 205.266 60.9516 205.343 60.7101C205.421 60.4685 205.493 60.1654 205.564 59.8039C205.707 59.0808 205.844 58.1248 205.973 57.0064C206.231 54.7696 206.459 51.8886 206.632 48.9968C206.806 46.1051 206.926 43.204 206.963 40.9272C206.982 39.7888 206.978 38.8066 206.953 38.0566C206.94 37.6817 206.923 37.3659 206.897 37.1127C206.872 36.8595 206.848 36.6817 206.784 36.5217C206.725 36.3739 206.624 36.3322 206.556 36.3036C206.488 36.275 206.429 36.2611 206.359 36.2486C206.22 36.2236 206.053 36.2103 205.859 36.2031C205.472 36.1886 204.977 36.1973 204.466 36.216C203.627 36.2468 202.94 36.2902 202.494 36.3097L202.497 36.307C201.333 35.1428 198.615 31.8483 195.991 28.8111C194.679 27.2925 193.385 25.8359 192.307 24.7243C191.767 24.1685 191.282 23.6976 190.868 23.3475C190.454 22.9973 190.138 22.7621 189.806 22.6792C189.637 22.6369 189.466 22.6105 189.294 22.5916C189.13 22.506 188.954 22.4465 188.77 22.4301L188.77 22.4301ZM188.682 23.1756C188.827 23.1683 188.97 23.1738 189.112 23.1843C189.124 23.1919 189.136 23.1966 189.147 23.2049C189.541 23.4824 189.922 24.1145 190.089 24.7733C190.255 25.4321 190.203 26.094 189.91 26.4705C189.617 26.8471 189.065 27.0575 187.93 26.7334C187.246 26.5378 186.718 25.773 186.528 25.0585C186.377 24.4957 186.458 24.2499 186.661 24.0458C186.859 23.8457 187.267 23.6873 187.788 23.5528H187.875L187.965 23.4454C188.04 23.3558 188.112 23.2899 188.182 23.2332C188.35 23.2037 188.517 23.1839 188.682 23.1757L188.682 23.1756ZM190.313 23.6807C190.368 23.7235 190.421 23.763 190.479 23.8121C190.867 24.1406 191.34 24.5985 191.871 25.146C192.934 26.241 194.221 27.6956 195.53 29.2105C197.908 31.9626 200.331 34.8897 201.682 36.3302H189.066C186.188 36.3302 183.299 36.1785 180.402 36.1317C178.36 36.0988 176.316 36.1208 174.271 36.2786C174.977 35.5915 175.8 34.6167 176.73 33.4957C177.975 31.9931 179.398 30.234 180.889 28.5972C182.379 26.9604 183.939 25.4479 185.45 24.4417C185.609 24.3353 185.767 24.2381 185.925 24.1437C185.834 24.4468 185.834 24.8088 185.943 25.2173C186.175 26.0866 186.776 27.037 187.761 27.3183C189.025 27.6793 189.924 27.4415 190.391 26.8407C190.858 26.2399 190.875 25.3986 190.68 24.6238C190.596 24.2936 190.471 23.9733 190.313 23.6807V23.6807ZM178.273 36.7321C178.978 36.7263 179.685 36.7312 180.392 36.7424C183.275 36.7889 186.168 36.9365 189.066 36.9365H202.061C202.428 36.9365 203.477 36.8602 204.486 36.8232C204.991 36.8046 205.479 36.7969 205.836 36.8102C206.011 36.8167 206.151 36.831 206.239 36.8463C206.256 36.9147 206.276 36.9964 206.294 37.1735C206.318 37.4048 206.338 37.7098 206.35 38.0762C206.375 38.8091 206.375 39.7846 206.357 40.9167C206.319 43.181 206.203 46.0775 206.029 48.9615C205.856 51.8455 205.626 54.7158 205.37 56.9341C205.242 58.0432 205.108 58.9918 204.97 59.6869C204.902 60.0345 204.832 60.3199 204.766 60.5253C204.7 60.7306 204.616 60.8573 204.623 60.8499C204.403 61.0699 203.717 61.2472 202.792 61.2648C201.867 61.2824 200.716 61.181 199.543 61.0415C198.37 60.9019 197.175 60.7236 196.144 60.5931C195.113 60.4626 194.264 60.3747 193.703 60.4307C192.474 60.5535 186.336 60.972 180.486 61.2321C177.562 61.3621 174.701 61.4544 172.556 61.4502C171.483 61.4486 170.589 61.4205 169.962 61.3652C169.648 61.3376 169.401 61.3027 169.245 61.2646C169.188 61.2513 169.159 61.2368 169.131 61.226C168.844 60.4753 168.687 58.7803 168.712 56.6359C168.738 54.4641 168.923 51.8381 169.222 49.2079C169.52 46.5776 169.931 43.9412 170.413 41.7541C170.882 39.6255 171.437 37.9676 171.952 37.1476C174.051 36.8594 176.158 36.7495 178.274 36.7319L178.273 36.7321ZM196.935 38.7583C193.953 38.7605 190.872 38.8459 190.248 38.8459C184.753 38.8459 179.236 39.2356 173.792 40.0244L173.659 40.0433L173.584 40.1576C173.386 40.4552 173.271 40.8931 173.15 41.4949C173.028 42.0967 172.919 42.8514 172.821 43.7058C172.627 45.4146 172.476 47.5247 172.364 49.5852C172.251 51.6457 172.176 53.653 172.136 55.1553C172.116 55.9065 172.107 56.5319 172.104 56.9737C172.103 57.1946 172.105 57.3672 172.108 57.4925C172.109 57.5551 172.107 57.6072 172.111 57.6488C172.112 57.6696 172.114 57.687 172.118 57.7107C172.119 57.7225 172.121 57.7366 172.128 57.7588C172.131 57.7699 172.144 57.8008 172.144 57.8017C172.145 57.8026 172.209 57.895 172.21 57.8953C172.321 58.0066 172.418 58.0137 172.502 58.0251C172.586 58.0364 172.669 58.0357 172.758 58.0319C172.938 58.0242 173.141 57.9977 173.346 57.9666C173.551 57.9355 173.755 57.9007 173.921 57.8729C174.086 57.8452 174.238 57.8274 174.231 57.8274C180.787 57.8274 187.416 58.3733 193.966 57.8274C194.203 57.8077 194.863 57.8587 195.658 57.9571C196.452 58.0555 197.407 58.1941 198.336 58.3308C199.264 58.4674 200.167 58.6028 200.868 58.6906C201.218 58.7346 201.516 58.7662 201.748 58.7817C201.864 58.7895 201.963 58.7933 202.05 58.7912C202.136 58.789 202.195 58.8038 202.323 58.7396C202.443 58.6798 202.491 58.5975 202.533 58.5223C202.576 58.4471 202.608 58.3664 202.637 58.2749C202.696 58.092 202.746 57.8635 202.794 57.5835C202.89 57.0235 202.974 56.2663 203.05 55.37C203.2 53.5775 203.313 51.2348 203.391 48.8997C203.468 46.5646 203.511 44.237 203.518 42.4749C203.521 41.5939 203.516 40.854 203.501 40.3233C203.494 40.0579 203.483 39.8474 203.471 39.6903C203.465 39.6117 203.461 39.5451 203.452 39.4884C203.447 39.4601 203.442 39.4363 203.433 39.4042C203.428 39.3883 203.421 39.3694 203.409 39.3458C203.404 39.334 203.4 39.3198 203.391 39.3037C203.381 39.2876 203.346 39.2498 203.345 39.2488C203.227 39.1305 203.112 39.0989 202.975 39.0598C202.838 39.0208 202.678 38.9903 202.488 38.9628C202.108 38.9077 201.616 38.8692 201.043 38.8391C199.897 38.7788 198.427 38.7573 196.936 38.7583L196.935 38.7583ZM196.935 39.3656H196.936C198.421 39.3647 199.885 39.3838 201.01 39.4429C201.573 39.4725 202.052 39.5128 202.399 39.5631C202.572 39.5883 202.713 39.6177 202.808 39.6447C202.851 39.6572 202.837 39.6511 202.857 39.661C202.86 39.6864 202.863 39.701 202.867 39.7358C202.877 39.8743 202.886 40.0797 202.893 40.3396C202.906 40.8594 202.912 41.595 202.909 42.4723C202.903 44.2269 202.86 46.551 202.783 48.8799C202.768 49.344 202.744 49.7856 202.726 50.2456C202.07 49.6932 201.616 49.0836 201.257 48.5037C200.801 47.7688 200.517 47.0867 200.117 46.6209C199.917 46.3881 199.661 46.2021 199.347 46.1563C199.033 46.1105 198.704 46.2042 198.341 46.4131C197.616 46.8309 196.692 47.7199 195.283 49.312C192.933 51.9666 192.456 52.4149 192.176 52.7013C191.916 52.9674 191.751 53.2029 190.589 54.7353C189.832 53.6338 189.016 52.3553 188.196 51.1011C187.347 49.8012 186.494 48.535 185.694 47.5331C184.893 46.5312 184.172 45.7822 183.434 45.5361C183.207 45.4606 183.005 45.5141 182.784 45.5919C182.564 45.6698 182.324 45.7902 182.06 45.9424C181.533 46.2469 180.922 46.6792 180.308 47.1466C179.081 48.0815 177.862 49.1501 177.392 49.6143C176.094 50.8957 174.162 53.328 172.747 55.1029C172.787 53.613 172.861 51.6429 172.972 49.6169C173.084 47.5634 173.234 45.4616 173.426 43.7736C173.522 42.9296 173.628 42.1889 173.744 41.6151C173.848 41.1011 173.967 40.7784 174.052 40.6119C179.411 39.8438 184.84 39.4532 190.248 39.4532C190.925 39.4532 193.965 39.3677 196.935 39.3656L196.935 39.3656ZM191.298 42.6965C190.097 42.7462 189.125 43.4853 188.713 44.4196C188.477 44.9534 188.419 45.5594 188.618 46.1271C188.818 46.6948 189.271 47.209 189.985 47.5658C190.537 47.8417 191.144 47.9365 191.732 47.9326C191.733 47.9326 191.734 47.9326 191.735 47.9326L191.732 47.3253L191.807 47.9223C193.09 47.6015 193.883 46.4235 193.972 45.2639C194.017 44.6841 193.883 44.0962 193.527 43.6242C193.171 43.1522 192.594 42.8149 191.826 42.7189C191.646 42.6963 191.47 42.6894 191.298 42.6965L191.298 42.6965ZM191.321 43.3012C191.46 43.2954 191.604 43.3009 191.751 43.3193C192.387 43.3988 192.79 43.6523 193.043 43.9884C193.297 44.3244 193.4 44.761 193.365 45.2183C193.295 46.1241 192.663 47.0558 191.683 47.3159C191.179 47.3137 190.685 47.2366 190.258 47.023C189.658 46.723 189.336 46.3344 189.193 45.9261C189.049 45.5179 189.086 45.0752 189.268 44.6635C189.586 43.9429 190.348 43.3417 191.321 43.3012L191.321 43.3012ZM183.242 46.1108C183.712 46.2673 184.444 46.9418 185.219 47.9128C185.995 48.8838 186.84 50.14 187.686 51.4353C188.533 52.7306 189.383 54.0654 190.173 55.2077C190.765 56.0644 191.32 56.8115 191.833 57.3593C186.02 57.6515 180.116 57.2202 174.231 57.2202C174.102 57.2202 173.988 57.2433 173.819 57.2717C173.649 57.3001 173.448 57.3367 173.254 57.3662C173.059 57.3958 172.868 57.4188 172.731 57.4246C172.723 57.425 172.72 57.4244 172.711 57.4246C172.71 57.3116 172.71 57.1688 172.711 56.9762C172.713 56.7212 172.723 56.2898 172.73 55.9189L172.815 55.9868C174.244 54.2001 176.467 51.3761 177.818 50.0421C178.245 49.6209 179.471 48.5471 180.675 47.6302C181.277 47.1718 181.875 46.7498 182.363 46.4681C182.606 46.3273 182.823 46.2208 182.986 46.1632C183.149 46.1055 183.257 46.1157 183.242 46.1108H183.242ZM199.149 46.7533C199.19 46.7501 199.226 46.7528 199.26 46.7576C199.392 46.777 199.51 46.8479 199.655 47.017C199.946 47.355 200.259 48.0451 200.74 48.8216C201.18 49.5309 201.779 50.3142 202.695 50.9887C202.627 52.5664 202.548 54.0895 202.445 55.3177C202.371 56.2046 202.286 56.9517 202.195 57.4796C202.15 57.7436 202.102 57.9557 202.059 58.0903C202.044 58.1379 202.032 58.1593 202.02 58.1848C201.965 58.1857 201.889 58.1846 201.789 58.178C201.579 58.1638 201.287 58.1301 200.942 58.0869C200.253 58.0006 199.352 57.8663 198.423 57.7296C197.494 57.5929 196.537 57.4531 195.732 57.3534C194.927 57.2537 194.299 57.1919 193.917 57.2237C193.5 57.2584 193.082 57.2877 192.664 57.3139C192.193 56.9036 191.599 56.164 190.955 55.2576C192.285 53.5056 192.36 53.38 192.611 53.1232C192.869 52.8593 193.383 52.375 195.738 49.7149C197.133 48.1385 198.055 47.2772 198.643 46.9389C198.863 46.812 199.025 46.7621 199.149 46.7533L199.149 46.7533Z" fill="#ADD3D8"/>
<path d="M127.77 31.5604C127.73 31.5619 127.691 31.5712 127.655 31.5879C127.618 31.6045 127.586 31.6282 127.559 31.6574C127.559 31.6574 126.305 33.0185 124.51 34.1604C122.649 35.345 120.971 36.8583 120.971 36.8583C120.942 36.8849 120.918 36.9172 120.901 36.9532C120.883 36.9891 120.874 37.0281 120.871 37.068C120.869 37.1078 120.875 37.1476 120.889 37.1851C120.902 37.2227 120.922 37.2573 120.949 37.2869C120.976 37.3163 121.008 37.3402 121.044 37.3571C121.081 37.3741 121.12 37.3837 121.159 37.3855C121.199 37.3874 121.239 37.3814 121.276 37.3678C121.314 37.3543 121.348 37.3335 121.378 37.3066C121.378 37.3066 123.032 35.8216 124.835 34.674C126.706 33.4836 128.007 32.0671 128.007 32.0671C128.034 32.0377 128.055 32.0033 128.068 31.9658C128.082 31.9283 128.088 31.8885 128.086 31.8487C128.084 31.8089 128.074 31.7699 128.057 31.7338C128.04 31.6977 128.017 31.6654 127.987 31.6385C127.928 31.5848 127.85 31.5568 127.77 31.5604L127.77 31.5604ZM127.991 34.3356C127.931 34.3385 127.873 34.3592 127.825 34.3949L123.16 37.8392C123.096 37.8867 123.053 37.9576 123.041 38.0366C123.028 38.1156 123.048 38.1962 123.095 38.2609C123.118 38.2932 123.148 38.3205 123.182 38.3413C123.216 38.3621 123.254 38.3759 123.294 38.382C123.333 38.388 123.374 38.3862 123.412 38.3767C123.451 38.3671 123.488 38.3499 123.52 38.3262L128.185 34.8845C128.217 34.8609 128.244 34.8312 128.265 34.797C128.286 34.7629 128.3 34.725 128.306 34.6855C128.312 34.646 128.31 34.6056 128.301 34.5668C128.291 34.528 128.274 34.4915 128.25 34.4593C128.22 34.4188 128.181 34.3864 128.136 34.3648C128.091 34.3432 128.041 34.3332 127.991 34.3356L127.991 34.3356ZM99.3417 31.7174C99.3019 31.7189 99.2627 31.7283 99.2264 31.7449C99.1902 31.7616 99.1576 31.7852 99.1305 31.8145C99.1305 31.8145 97.8764 33.1756 96.0821 34.3174C94.2205 35.5021 92.5433 37.0153 92.5433 37.0153C92.5137 37.042 92.4896 37.0743 92.4725 37.1102C92.4553 37.1462 92.4454 37.1852 92.4433 37.225C92.4413 37.2648 92.4471 37.3046 92.4604 37.3422C92.4737 37.3798 92.4943 37.4143 92.521 37.4439C92.5479 37.4734 92.5803 37.4973 92.6163 37.5142C92.6524 37.5311 92.6914 37.5408 92.7312 37.5426C92.771 37.5444 92.8108 37.5384 92.8483 37.5249C92.8858 37.5113 92.9202 37.4905 92.9496 37.4637C92.9496 37.4637 94.6034 35.9787 96.4068 34.8311C98.2774 33.6407 99.5789 32.2242 99.5789 32.2242C99.6057 32.1948 99.6265 32.1603 99.64 32.1228C99.6535 32.0854 99.6596 32.0456 99.6577 32.0058C99.6559 31.966 99.6462 31.9269 99.6293 31.8909C99.6123 31.8548 99.5885 31.8224 99.559 31.7956C99.4997 31.7419 99.4216 31.7138 99.3417 31.7174L99.3417 31.7174ZM99.5625 34.4927C99.5026 34.4956 99.4449 34.5162 99.3968 34.5519L94.7319 37.9962C94.6677 38.0438 94.6248 38.1147 94.6125 38.1937C94.6003 38.2726 94.6197 38.3532 94.6666 38.418C94.6902 38.4503 94.7199 38.4776 94.754 38.4984C94.7882 38.5191 94.8261 38.5329 94.8656 38.539C94.9051 38.5451 94.9454 38.5433 94.9842 38.5337C95.0231 38.5241 95.0596 38.507 95.0918 38.4833L99.7566 35.0415C99.7889 35.018 99.8162 34.9883 99.837 34.9541C99.8578 34.92 99.8716 34.882 99.8777 34.8425C99.8838 34.803 99.882 34.7627 99.8724 34.7239C99.8629 34.6851 99.8457 34.6485 99.822 34.6164C99.7924 34.5759 99.7531 34.5434 99.7079 34.5218C99.6626 34.5003 99.6127 34.4902 99.5626 34.4927L99.5625 34.4927Z" fill="#ADD3D8"/>
<path d="M84.3835 21.6989L84.2959 21.8449C83.8564 22.5701 83.5067 23.8292 83.1759 25.5331C82.845 27.2371 82.5466 29.3768 82.2834 31.7956C81.7571 36.6333 81.3664 42.591 81.111 48.397C80.8555 54.2031 80.736 59.8545 80.7605 64.0803C80.7722 66.1932 80.8217 67.9478 80.9066 69.1935C80.949 69.8164 80.9984 70.3122 81.062 70.6709C81.094 70.8502 81.1297 70.9952 81.1762 71.1183C81.1995 71.1798 81.2248 71.2344 81.2673 71.2936C81.3099 71.3527 81.377 71.4292 81.4975 71.4593C81.6057 71.4864 81.6804 71.4842 81.829 71.4919C81.9776 71.5001 82.1742 71.5052 82.4166 71.5108C82.9013 71.5207 83.572 71.5286 84.4033 71.5306C86.0659 71.5339 88.3707 71.5207 91.1064 71.498C96.5777 71.4513 103.769 71.3596 110.965 71.2515C118.161 71.1435 125.361 71.0195 130.852 70.9139C133.597 70.8611 135.915 70.814 137.591 70.774C138.429 70.7539 139.106 70.7344 139.597 70.719C140.088 70.704 140.365 70.6953 140.5 70.6802C140.623 70.6669 140.711 70.5946 140.763 70.5341C140.814 70.4738 140.846 70.4153 140.874 70.352C140.928 70.2254 140.966 70.0784 141.003 69.8942C141.078 69.526 141.135 69.016 141.188 68.3722C141.294 67.0847 141.368 65.2671 141.416 63.0872C141.512 58.7275 141.507 52.9246 141.458 47.0922C141.409 41.2597 141.315 35.3973 141.234 30.9254C141.193 28.6894 141.157 26.8024 141.13 25.4385C141.102 24.0746 141.084 23.2135 141.084 23.1014C141.084 22.9226 140.965 22.8337 140.899 22.793C140.833 22.7523 140.775 22.7326 140.708 22.7123C140.574 22.6716 140.409 22.6396 140.195 22.6083C139.768 22.5457 139.159 22.4886 138.386 22.4357C136.841 22.3299 134.642 22.2408 132.004 22.1634C126.729 22.0087 119.702 21.9075 112.672 21.8387C98.6134 21.7013 84.5553 21.6987 84.5553 21.6987L84.3835 21.6989ZM84.7666 22.3061C84.9752 22.3062 98.716 22.3096 112.665 22.4461C119.693 22.5148 126.721 22.6163 131.988 22.7708C134.622 22.8481 136.814 22.9384 138.344 23.0431C139.109 23.0954 139.711 23.1507 140.108 23.2089C140.282 23.2344 140.396 23.2613 140.48 23.2836C140.482 23.527 140.497 24.1908 140.522 25.449C140.55 26.8128 140.589 28.703 140.63 30.9384C140.711 35.4092 140.801 41.2664 140.851 47.0958C140.9 52.9252 140.907 58.7262 140.812 63.0736C140.764 65.2473 140.689 67.0599 140.584 68.3234C140.532 68.9551 140.471 69.4505 140.406 69.7741C140.376 69.9202 140.349 70.0177 140.325 70.0799C140.226 70.0865 140.004 70.0982 139.578 70.1117C139.09 70.1266 138.412 70.1474 137.575 70.1675C135.901 70.2077 133.583 70.2539 130.839 70.3066C125.35 70.4122 118.15 70.5362 110.955 70.6442C103.76 70.7522 96.5693 70.8441 91.1003 70.8907C88.3658 70.914 86.0616 70.9273 84.4032 70.9233C83.574 70.9217 82.907 70.915 82.4294 70.9043C82.1905 70.8994 81.9987 70.8961 81.8608 70.8877C81.7826 70.8844 81.7777 70.8811 81.7379 70.8778C81.7157 70.8135 81.6861 70.7103 81.6598 70.5634C81.6033 70.2455 81.5519 69.7652 81.5104 69.1539C81.4271 67.9314 81.3799 66.1825 81.3678 64.0768C81.3434 59.8654 81.4605 54.2197 81.7156 48.4227C81.9707 42.6258 82.3632 36.6767 82.8872 31.86C83.1492 29.4516 83.4446 27.3271 83.7702 25.6499C84.0822 24.0432 84.4334 22.9062 84.7666 22.3061V22.3061ZM87.2661 26.2443L87.2368 26.5295C87.2368 26.5295 86.8048 30.8497 86.4706 35.3112C86.3036 37.542 86.1591 39.807 86.1073 41.59C86.0814 42.4815 86.0787 43.2505 86.1073 43.8421C86.1223 44.1379 86.145 44.39 86.1786 44.5954C86.2122 44.8008 86.2365 44.9558 86.3478 45.1116C86.4948 45.3172 86.6728 45.3498 86.8958 45.4071C87.1189 45.4644 87.3999 45.5081 87.7367 45.5437C88.4103 45.6148 89.3123 45.6516 90.3728 45.6639C92.4939 45.6886 95.2455 45.61 97.9984 45.4724C100.751 45.3347 103.503 45.1388 105.621 44.927C106.68 44.8211 107.58 44.7115 108.247 44.6023C108.581 44.5477 108.854 44.4927 109.068 44.4365C109.283 44.3803 109.422 44.3689 109.585 44.2063C109.728 44.0625 109.754 43.925 109.796 43.7451C109.838 43.5651 109.869 43.3448 109.896 43.0828C109.952 42.5589 109.985 41.8703 110.004 41.0669C110.041 39.4602 110.018 37.4007 109.968 35.3662C109.869 31.2972 109.672 27.3283 109.672 27.3283L109.658 27.0492L87.2661 26.2443ZM87.8149 26.8705L109.075 27.6367C109.089 27.8984 109.267 31.4614 109.361 35.3791C109.41 37.4086 109.433 39.4655 109.396 41.054C109.378 41.8483 109.345 42.5237 109.293 43.0176C109.266 43.2645 109.237 43.4672 109.205 43.6059C109.188 43.6795 109.163 43.7337 109.15 43.764C109.114 43.7793 109.03 43.8226 108.916 43.8524C108.733 43.9004 108.473 43.9517 108.15 44.0045C107.505 44.11 106.611 44.218 105.56 44.3231C103.457 44.5334 100.711 44.7313 97.9667 44.8686C95.2224 45.0058 92.4796 45.0811 90.3797 45.0567C89.3297 45.0445 88.438 45.0074 87.7986 44.9399C87.479 44.9061 87.223 44.8643 87.0488 44.8196C86.9265 44.7881 86.8546 44.7395 86.8375 44.7354C86.8309 44.7133 86.7988 44.6352 86.7765 44.4984C86.7491 44.3299 86.7283 44.0948 86.7147 43.8129C86.6874 43.2493 86.6891 42.4917 86.7147 41.6089C86.7659 39.8433 86.9079 37.5826 87.0746 35.3568C87.3972 31.0485 87.7885 27.1355 87.815 26.8705L87.8149 26.8705ZM114.253 27.0329L114.236 27.3283C114.236 27.3283 114.039 31.2972 113.941 35.3662C113.892 37.4007 113.868 39.4602 113.905 41.0669C113.923 41.8703 113.957 42.5589 114.012 43.0828C114.04 43.3448 114.074 43.5651 114.116 43.7451C114.158 43.925 114.18 44.0625 114.324 44.2063C114.493 44.3752 114.635 44.3804 114.849 44.4271C115.064 44.4737 115.339 44.5127 115.671 44.5499C116.336 44.6242 117.229 44.6852 118.281 44.732C120.385 44.8256 123.115 44.865 125.848 44.8454C128.581 44.8257 131.316 44.7487 133.422 44.6057C134.475 44.5342 135.37 44.4457 136.038 44.3394C136.373 44.2863 136.65 44.2279 136.87 44.1608C137.09 44.0937 137.26 44.0549 137.402 43.8559C137.504 43.7138 137.541 43.5647 137.578 43.3783C137.614 43.1919 137.64 42.9692 137.658 42.7092C137.696 42.1892 137.702 41.5221 137.691 40.7551C137.669 39.2212 137.565 37.2894 137.438 35.392C137.182 31.5971 136.83 27.9416 136.83 27.9416L136.805 27.6753L136.536 27.6694L114.253 27.0329ZM114.834 27.6564L136.25 28.2697C136.274 28.5202 136.589 31.7887 136.835 35.4349C136.962 37.3266 137.066 39.2514 137.088 40.7654C137.099 41.5225 137.088 42.1753 137.052 42.6645C137.035 42.9092 137.01 43.1132 136.981 43.2615C136.954 43.3976 136.92 43.4715 136.916 43.4822C136.899 43.4873 136.822 43.5441 136.695 43.5827C136.52 43.636 136.263 43.6885 135.945 43.7391C135.309 43.8402 134.423 43.9276 133.38 43.9985C131.295 44.1401 128.57 44.2194 125.846 44.239C123.121 44.2586 120.396 44.2176 118.308 44.1247C117.264 44.0783 116.38 44.0177 115.74 43.9461C115.419 43.9102 115.16 43.8718 114.98 43.8327C114.872 43.8093 114.793 43.7724 114.757 43.7588C114.743 43.7273 114.72 43.6745 114.705 43.6059C114.672 43.4672 114.643 43.2654 114.617 43.0184C114.565 42.5245 114.531 41.8483 114.513 41.0541C114.477 39.4655 114.499 37.4086 114.548 35.3791C114.643 31.4712 114.821 27.9354 114.834 27.6564L114.834 27.6564ZM110.111 48.2287L109.812 48.245L86.1202 49.5171L86.1235 49.8065C86.1235 49.8065 86.1618 53.7721 86.2206 57.8762C86.25 59.9282 86.2851 62.0152 86.322 63.6585C86.3405 64.4802 86.3609 65.1915 86.3804 65.7328C86.3998 66.2742 86.4123 66.6263 86.4387 66.8108C86.4761 67.073 86.6606 67.2595 86.8802 67.4017C87.0998 67.5439 87.3774 67.6556 87.7142 67.7582C88.3878 67.9634 89.2993 68.1236 90.3829 68.2487C92.5501 68.4988 95.4015 68.6124 98.2653 68.6223C101.129 68.632 104.004 68.5376 106.222 68.3723C107.33 68.2897 108.273 68.1899 108.974 68.0734C109.325 68.0152 109.613 67.9519 109.841 67.8819C110.069 67.8119 110.244 67.7749 110.39 67.5701C110.5 67.416 110.527 67.2649 110.565 67.0573C110.603 66.8497 110.633 66.5929 110.656 66.2911C110.702 65.6876 110.724 64.8999 110.728 63.9866C110.734 62.16 110.67 59.835 110.582 57.5455C110.405 52.9665 110.131 48.5267 110.131 48.5267L110.111 48.2287ZM109.542 48.8643C109.56 49.1442 109.807 53.153 109.978 57.5713C110.066 59.8562 110.128 62.1729 110.121 63.9832C110.118 64.8884 110.097 65.6681 110.053 66.2456C110.031 66.5344 110.003 66.7734 109.971 66.9465C109.944 67.0913 109.909 67.1774 109.903 67.1982C109.885 67.2029 109.801 67.2627 109.666 67.3038C109.481 67.3605 109.209 67.4174 108.874 67.4731C108.204 67.5843 107.274 67.6867 106.176 67.7685C103.981 67.9321 101.114 68.0248 98.2647 68.015C95.4154 68.0053 92.5819 67.8904 90.4544 67.6448C89.3907 67.5221 88.5024 67.3666 87.8931 67.181C87.5884 67.0882 87.3531 66.9835 87.2111 66.8916C87.0691 66.7996 87.0411 66.7359 87.0393 66.7232C87.026 66.6328 87.0027 66.2462 86.9835 65.7097C86.9642 65.1731 86.9469 64.4658 86.9284 63.6457C86.8917 62.0054 86.8575 59.918 86.8279 57.8668C86.771 53.9113 86.7361 50.3574 86.7335 50.0883L109.542 48.8643ZM114.253 49.4913L114.236 49.7902C114.236 49.7902 114.039 53.7557 113.941 57.8247C113.892 59.8592 113.868 61.9187 113.905 63.5254C113.923 64.3288 113.957 65.0208 114.012 65.5448C114.04 65.8067 114.074 66.0236 114.116 66.2036C114.158 66.3835 114.18 66.5236 114.324 66.6674C114.493 66.8362 114.635 66.8389 114.849 66.8855C115.064 66.9322 115.339 66.9746 115.671 67.0118C116.336 67.0862 117.229 67.1437 118.281 67.1905C120.385 67.2841 123.115 67.3235 125.848 67.3038C128.581 67.2842 131.316 67.2064 133.422 67.0633C134.475 66.9918 135.37 66.9042 136.038 66.7979C136.373 66.7448 136.65 66.689 136.87 66.6218C137.09 66.5547 137.26 66.5126 137.402 66.3135C137.504 66.1714 137.541 66.0267 137.578 65.8402C137.614 65.6538 137.64 65.4276 137.658 65.1677C137.696 64.6477 137.702 63.984 137.691 63.217C137.669 61.6831 137.565 59.7478 137.438 57.8504C137.182 54.0556 136.83 50.4035 136.83 50.4035L136.805 50.1372L136.536 50.1277L114.253 49.4913ZM114.834 50.1175L136.25 50.7282C136.274 50.976 136.589 54.2447 136.835 57.8925C136.962 59.7842 137.066 61.709 137.088 63.2231C137.099 63.9801 137.088 64.6363 137.052 65.1256C137.035 65.3702 137.01 65.5751 136.981 65.7234C136.957 65.8476 136.927 65.918 136.918 65.9399C136.903 65.9433 136.824 66.0019 136.695 66.0412C136.52 66.0945 136.263 66.1496 135.945 66.2001C135.309 66.3012 134.423 66.3887 133.38 66.4595C131.295 66.6012 128.571 66.677 125.846 66.6966C123.121 66.7162 120.396 66.6796 118.308 66.5866C117.264 66.5402 116.38 66.4796 115.74 66.408C115.42 66.3721 115.161 66.3337 114.98 66.2946C114.873 66.2712 114.793 66.2327 114.757 66.2182C114.743 66.1873 114.721 66.1352 114.705 66.067C114.672 65.9283 114.643 65.7264 114.617 65.4795C114.565 64.9856 114.532 64.3068 114.513 63.5125C114.477 61.924 114.5 59.8705 114.549 57.841C114.643 53.9331 114.821 50.3964 114.835 50.1175L114.834 50.1175Z" fill="#ADD3D8"/>
<path d="M111.122 48.574C110.914 48.5727 110.743 48.7414 110.742 48.9502V50.0247C110.743 50.2335 110.914 50.4022 111.122 50.4009C111.33 50.4001 111.497 50.2319 111.498 50.0247V48.9502C111.497 48.743 111.33 48.575 111.122 48.574ZM108.958 50.7342C108.751 50.735 108.583 50.9032 108.582 51.1104C108.58 51.3192 108.749 51.4891 108.958 51.4901H110.032C110.241 51.4893 110.41 51.3192 110.409 51.1104C110.408 50.9032 110.24 50.7352 110.032 50.7342H108.958ZM112.208 50.7342C112.001 50.735 111.833 50.9032 111.832 51.1104C111.831 51.3192 111.999 51.4891 112.208 51.4901H113.283C113.491 51.4893 113.659 51.3192 113.658 51.1104C113.657 50.9032 113.49 50.7352 113.283 50.7342H112.208ZM111.122 51.8242C110.914 51.8229 110.743 51.9907 110.742 52.1995V53.2741C110.743 53.4828 110.914 53.6515 111.122 53.6503C111.33 53.6495 111.497 53.4813 111.498 53.2741V52.1995C111.497 51.9923 111.33 51.8252 111.122 51.8242Z" fill="black"/>
<path d="M99.8032 145.261C106.807 126.453 120.921 130.426 119.179 118.678C118.605 114.812 113.348 113.455 113.298 110.936C113.155 103.669 117.812 101.017 117.672 93.8974C114.184 73.5646 91.8215 95.9139 99.8042 114.027C97.5277 119.972 96.7442 153.476 99.8032 145.261H99.8032Z" fill="#ADD3D8"/>
<path d="M121.222 113.828L122.873 120.194L122.035 128.729C122.035 128.729 128.735 130.074 135.034 130.206C141.334 130.338 141.531 122.872 141.531 122.872L134.979 118.281L128.371 117.898L121.222 113.828Z" fill="#A0BFCE"/>
<path d="M144.853 123.674C145.859 127.249 160.079 177.738 160.985 179.822C161.924 181.981 162.455 181.586 163.01 180.6C163.545 179.653 153.409 125.804 152.603 121.526L144.853 123.674ZM118.825 127.229C115.6 138.224 104.465 178.46 104.05 180.488C103.569 182.837 104.197 182.922 105.173 182.573C106.062 182.255 123.062 137.647 126.345 129.663C124.027 129.239 120.518 127.904 118.825 127.229ZM133.364 130.413C133.53 133.725 135.886 180.506 136.292 182.521C136.712 184.608 137.314 184.411 138.073 183.716C138.802 183.048 141.149 134.474 141.334 130.615L133.364 130.413Z" fill="#F09B00" fill-opacity="0.74"/>
<path d="M130.082 129.896L130.115 130.241C130.271 131.897 131.454 144.421 132.66 156.783C133.263 162.964 133.872 169.102 134.361 173.824C134.605 176.185 134.819 178.191 134.988 179.672C135.072 180.412 135.145 181.021 135.205 181.479C135.265 181.936 135.307 182.226 135.348 182.393C135.48 182.93 135.618 183.328 135.776 183.628C135.934 183.928 136.118 184.145 136.364 184.246C136.61 184.347 136.878 184.298 137.091 184.19C137.305 184.083 137.493 183.922 137.685 183.739C137.779 183.65 137.782 183.596 137.799 183.542C137.816 183.489 137.826 183.434 137.838 183.371C137.862 183.244 137.882 183.082 137.903 182.88C137.944 182.477 137.983 181.918 138.02 181.215C138.093 179.81 138.159 177.841 138.218 175.486C138.336 170.775 138.426 164.521 138.497 158.165C138.638 145.454 138.694 132.342 138.701 130.412V130.113L130.082 129.896ZM130.751 130.528L138.091 130.715C138.082 132.864 138.029 145.586 137.89 158.155C137.819 164.509 137.728 170.764 137.611 175.469C137.552 177.822 137.485 179.788 137.413 181.182C137.376 181.88 137.341 182.434 137.302 182.818C137.283 183.01 137.262 183.16 137.244 183.256C137.238 183.288 137.232 183.304 137.227 183.322C137.074 183.463 136.929 183.583 136.822 183.637C136.703 183.697 136.652 183.697 136.594 183.674C136.537 183.65 136.432 183.566 136.312 183.338C136.192 183.11 136.063 182.753 135.939 182.245C135.918 182.161 135.865 181.847 135.806 181.396C135.746 180.945 135.676 180.341 135.591 179.603C135.423 178.126 135.209 176.121 134.965 173.761C134.476 169.041 133.866 162.901 133.264 156.721C132.074 144.521 130.931 132.439 130.751 130.528H130.751ZM150.528 125.352L150.317 125.419L143.016 127.656L143.1 127.913C143.1 127.913 147.183 140.587 151.385 153.507C153.486 159.966 155.616 166.486 157.28 171.517C158.112 174.033 158.827 176.177 159.364 177.754C159.633 178.543 159.858 179.192 160.03 179.674C160.202 180.157 160.316 180.462 160.39 180.617C160.631 181.124 160.843 181.488 161.046 181.743C161.249 181.999 161.451 182.153 161.673 182.187C161.894 182.221 162.099 182.112 162.254 181.952C162.408 181.792 162.533 181.583 162.656 181.348C162.709 181.247 162.697 181.2 162.698 181.143C162.7 181.087 162.697 181.028 162.692 180.957C162.681 180.815 162.661 180.63 162.627 180.401C162.56 179.944 162.445 179.311 162.296 178.519C161.997 176.934 161.547 174.721 160.991 172.095C159.879 166.843 158.351 159.925 156.809 153.037C153.727 139.26 150.586 125.598 150.586 125.598L150.528 125.352ZM150.216 125.974C150.272 126.216 153.33 139.512 156.384 153.164C157.925 160.051 159.451 166.966 160.562 172.214C161.118 174.838 161.57 177.046 161.867 178.623C162.016 179.411 162.127 180.044 162.192 180.487C162.224 180.708 162.245 180.884 162.254 181.001C162.258 181.055 162.26 181.092 162.26 181.117C162.154 181.315 162.048 181.482 161.958 181.575C161.862 181.675 161.804 181.698 161.731 181.687C161.658 181.676 161.535 181.607 161.371 181.4C161.206 181.193 161.007 180.86 160.777 180.375C160.733 180.283 160.606 179.958 160.436 179.48C160.265 179.002 160.042 178.359 159.773 177.571C159.237 175.997 158.521 173.853 157.689 171.338C156.026 166.308 153.898 159.787 151.797 153.328C147.639 140.541 143.679 128.253 143.597 127.999L150.216 125.974Z" fill="black"/>
<path d="M137.02 116.245L113.378 116.876L113.291 117.024C112.54 118.323 112.156 119.51 112.105 120.604C112.055 121.697 112.346 122.688 112.893 123.548C113.985 125.27 116.055 126.519 118.597 127.575H118.6C124.884 130.125 134.484 131.779 143.949 128.438C151.951 125.614 154.709 122.858 155.44 120.629C156.172 118.401 154.708 116.869 154.708 116.869L154.627 116.784L137.02 116.245ZM137.017 116.935L154.364 117.467C154.469 117.575 155.456 118.624 154.878 120.386C154.269 122.241 151.705 124.978 143.772 127.778C134.471 131.06 124.981 129.432 118.802 126.925H118.799C116.305 125.89 114.335 124.651 113.378 123.143C112.899 122.388 112.663 121.575 112.706 120.64C112.747 119.749 113.097 118.715 113.741 117.559L137.017 116.935Z" fill="black"/>
<path d="M134.069 120.943C145.562 120.943 154.879 119.368 154.879 117.425C154.879 115.482 145.562 113.907 134.069 113.907C122.576 113.907 113.26 115.482 113.26 117.425C113.26 119.368 122.576 120.943 134.069 120.943Z" fill="black"/>
<path d="M115.385 125.156L115.29 125.574C115.29 125.574 112.148 139.237 109.065 153.015C107.524 159.903 105.997 166.821 104.885 172.074C104.329 174.701 103.876 176.911 103.577 178.497C103.427 179.29 103.315 179.926 103.248 180.386C103.214 180.616 103.191 180.801 103.18 180.947C103.174 181.021 103.171 181.084 103.173 181.147C103.175 181.21 103.159 181.262 103.229 181.396C103.353 181.635 103.481 181.851 103.646 182.022C103.811 182.193 104.045 182.321 104.295 182.283C104.544 182.245 104.761 182.071 104.972 181.807C105.182 181.542 105.397 181.172 105.64 180.661C105.718 180.497 105.826 180.207 105.991 179.745C106.157 179.283 106.371 178.664 106.628 177.911C107.142 176.405 107.826 174.36 108.622 171.955C110.215 167.143 112.258 160.891 114.293 154.636C118.363 142.127 122.398 129.61 122.722 128.605L122.854 128.199L122.48 128.139C119.779 127.708 115.721 125.352 115.721 125.352L115.385 125.156ZM115.785 126.152C116.274 126.436 119.373 128.188 122.035 128.729C121.614 130.036 117.737 142.061 113.725 154.393C111.69 160.647 109.646 166.898 108.054 171.707C107.258 174.111 106.575 176.155 106.062 177.657C105.806 178.408 105.593 179.024 105.429 179.48C105.266 179.936 105.145 180.249 105.107 180.328C104.879 180.809 104.681 181.138 104.524 181.336C104.367 181.534 104.259 181.586 104.214 181.593C104.169 181.6 104.137 181.593 104.052 181.505C103.976 181.426 103.879 181.268 103.781 181.087C103.781 181.065 103.781 181.047 103.785 181.009C103.793 180.895 103.814 180.723 103.846 180.503C103.911 180.063 104.021 179.432 104.17 178.644C104.468 177.069 104.919 174.862 105.475 172.239C106.586 166.991 108.112 160.075 109.653 153.188C112.69 139.615 115.695 126.542 115.785 126.152H115.785Z" fill="black"/>
<path d="M85.9729 142.63C79.435 140.889 59.3514 139.592 60.6681 130.195C61.1014 127.103 68.0254 125.759 67.874 123.761C67.4372 117.997 60.9703 116.134 60.5424 110.486C63.4537 94.1996 95.3391 110.761 86.215 125.519C89.7784 130.113 96.9508 140.126 85.9728 142.63H85.9729Z" fill="#ADD3D8"/>
<path d="M94.1818 141.929C88.2728 138.183 68.8632 131.371 73.0805 120.828C74.4682 117.358 81.7162 117.631 82.1873 115.275C83.5468 108.477 77.7457 104.609 79.0777 97.9495C79.8299 94.1882 85.2393 95.2351 85.9634 93.0628C86.8112 90.5194 85.2705 77.8096 93.2933 82.6233C95.2668 83.8074 96.4481 85.6236 97.2914 87.732C98.7451 91.3662 97.0121 95.5567 98.1799 99.06C99.6172 103.372 103.609 105.483 102.844 110.832C102.419 113.813 98.7764 119.285 99.7347 122.16C101.823 128.427 105.789 141.929 94.1818 141.929Z" fill="#56C596"/>
<path d="M88.1876 81.398C87.4053 81.2836 86.7402 81.4035 86.1813 81.7129C85.0637 82.3344 84.4615 83.6388 84.0907 85.1216C83.7199 86.6044 83.5807 88.2964 83.4804 89.7736C83.38 91.2508 83.2993 92.5406 83.12 93.0784C82.9771 93.5071 82.5986 93.7948 82.013 94.0458C81.4274 94.2969 80.6664 94.4873 79.8866 94.7308C79.1069 94.9743 78.3052 95.2729 77.6337 95.7729C76.9621 96.2729 76.4271 96.9884 76.2248 97.9999C75.54 101.424 76.6954 104.139 77.809 106.788C78.9226 109.436 79.9961 112.019 79.3348 115.326C79.2465 115.767 78.8125 116.14 78.0784 116.485C77.3444 116.829 76.3553 117.124 75.3288 117.455C74.3022 117.787 73.2361 118.157 72.3194 118.676C71.4026 119.195 70.6262 119.872 70.245 120.825C69.1567 123.546 69.5975 126.075 70.9527 128.314C72.3079 130.554 74.5566 132.53 77.1078 134.288C82.21 137.803 88.5685 140.459 91.4664 142.296L91.5378 142.342H91.6287C94.5894 142.342 96.6185 141.469 97.9104 140.034C99.2023 138.599 99.7408 136.643 99.842 134.521C100.044 130.278 98.5157 125.316 97.4689 122.175C97.0445 120.902 97.6592 118.848 98.498 116.761C99.3368 114.673 100.366 112.57 100.592 110.985C100.985 108.232 100.138 106.27 99.0401 104.509C97.9424 102.748 96.6106 101.165 95.9139 99.0744C95.3557 97.3999 95.4867 95.5154 95.5925 93.5718C95.6983 91.6282 95.7751 89.6247 95.0179 87.7316C94.1606 85.5883 92.9402 83.6996 90.895 82.4725C89.8688 81.8568 88.9699 81.5123 88.1876 81.398L88.1876 81.398ZM88.1227 81.9954C88.7951 82.0975 89.604 82.4076 90.5834 82.9952C92.4854 84.1364 93.6269 85.8822 94.4563 87.9557C95.1528 89.6969 95.0908 91.6034 94.9854 93.5394C94.8801 95.4754 94.7297 97.4372 95.3393 99.266C96.0799 101.488 97.461 103.12 98.5272 104.83C99.5934 106.54 100.362 108.305 99.9913 110.901C99.7919 112.297 98.7823 114.42 97.9331 116.533C97.084 118.646 96.3572 120.765 96.8911 122.367C97.933 125.493 99.4325 130.418 99.2382 134.492C99.141 136.529 98.623 138.335 97.4592 139.628C96.3049 140.91 94.4901 141.715 91.6872 141.728C88.6479 139.824 82.4367 137.222 77.4519 133.788C74.9392 132.056 72.7548 130.119 71.4721 127.999C70.1894 125.88 69.7863 123.603 70.8066 121.052C71.1192 120.271 71.7708 119.681 72.6181 119.202C73.4653 118.722 74.4992 118.362 75.5171 118.033C76.5349 117.705 77.5341 117.409 78.3349 117.033C79.1357 116.658 79.7815 116.183 79.9289 115.446C80.627 111.955 79.4815 109.204 78.3674 106.554C77.2533 103.904 76.1749 101.356 76.8221 98.12C76.9959 97.2509 77.4204 96.6893 77.9973 96.2598C78.5742 95.8304 79.3113 95.5483 80.0684 95.3119C80.8256 95.0755 81.5974 94.8853 82.2532 94.6042C82.909 94.3231 83.4787 93.9274 83.6979 93.2699C83.9425 92.536 83.9875 91.2834 84.0874 89.8126C84.1874 88.3418 84.3254 86.6786 84.6783 85.2677C85.0311 83.8568 85.6004 82.7294 86.4768 82.2421C86.9149 81.9985 87.4503 81.8933 88.1227 81.9954Z" fill="#0F0603"/>
<path d="M83.0261 139.132C83.1934 146.719 93.9061 146.888 86.8761 159.195C79.8461 171.503 84.0311 182.68 84.0311 182.68H93.9061H103.781C103.781 182.68 107.966 171.503 100.936 159.195C93.9061 146.888 104.619 146.719 104.786 139.132H93.9061H83.0261Z" fill="#F09B00" fill-opacity="0.74"/>
<path d="M77.4389 139.162L77.4453 139.469C77.4888 141.409 78.2243 142.891 79.1627 144.175C80.101 145.459 81.2369 146.563 82.1266 147.78C83.0162 148.998 83.664 150.317 83.6816 152.081C83.6992 153.846 83.0752 156.076 81.3345 159.079C74.2389 171.318 78.4712 182.475 78.4712 182.475L78.5426 182.668H88.629H98.7122L98.7869 182.475C98.7869 182.475 103.016 171.318 95.9203 159.079C94.1796 156.076 93.5556 153.846 93.5732 152.081C93.5908 150.317 94.2418 148.998 95.1315 147.78C96.0211 146.563 97.1538 145.459 98.0921 144.175C99.0305 142.891 99.7693 141.409 99.8127 139.469L99.8196 139.162H88.6294H77.4389ZM78.1141 139.765H88.6291H99.144C99.0325 141.393 98.4417 142.675 97.602 143.824C96.7043 145.053 95.5687 146.152 94.6381 147.426C93.7074 148.7 92.9852 150.165 92.9662 152.075C92.9471 153.985 93.6202 156.318 95.3945 159.379C102.178 171.079 98.4736 181.522 98.274 182.066H88.6291H78.9809C78.7812 181.521 75.077 171.079 81.8604 159.379C83.6347 156.318 84.3077 153.985 84.2887 152.075C84.2696 150.165 83.5475 148.7 82.6168 147.426C81.6861 146.152 80.5538 145.053 79.6561 143.824C78.8164 142.675 78.2257 141.393 78.1141 139.765Z" fill="#56C596"/>
<path d="M165.798 167.577C165.798 167.577 170.39 161.92 170.585 162.026C170.781 162.132 179.733 165.546 179.733 165.546C204.795 188.479 166.928 175.204 165.798 167.577Z" fill="#56C596"/>
<path d="M162.129 166.693L162.118 166.787C162.062 167.388 162.48 167.95 163.116 168.56C163.752 169.17 164.654 169.827 165.743 170.517C167.921 171.896 170.841 173.397 173.783 174.759C176.726 176.121 179.69 177.345 181.952 178.166C183.084 178.577 184.039 178.886 184.738 179.064C185.088 179.153 185.371 179.211 185.598 179.228C185.712 179.237 185.811 179.237 185.915 179.217C186.02 179.196 186.171 179.137 186.241 178.973C186.33 178.759 186.271 178.611 186.213 178.433C186.154 178.255 186.065 178.054 185.945 177.818C185.703 177.346 185.341 176.747 184.898 176.059C184.012 174.683 182.797 172.952 181.568 171.255C179.109 167.862 176.599 164.6 176.599 164.6L176.543 164.533L176.464 164.502C176.464 164.502 174.226 163.649 171.964 162.782C170.833 162.349 169.697 161.913 168.831 161.578C168.398 161.411 168.033 161.267 167.77 161.164C167.639 161.112 167.534 161.073 167.459 161.043C167.384 161.013 167.301 160.972 167.353 161C167.352 160.999 167.285 160.97 167.284 160.97C167.284 160.969 167.241 160.963 167.222 160.961C167.185 160.96 167.157 160.963 167.133 160.968C167.086 160.978 167.059 160.992 167.036 161.004C166.991 161.028 166.963 161.049 166.932 161.073C166.871 161.122 166.807 161.183 166.731 161.259C166.579 161.412 166.384 161.627 166.153 161.887C165.691 162.407 165.098 163.105 164.511 163.807C163.337 165.21 162.184 166.625 162.184 166.625L162.129 166.693ZM162.754 166.888C162.844 166.778 163.855 165.535 164.976 164.195C165.562 163.495 166.154 162.799 166.608 162.288C166.835 162.033 167.028 161.822 167.164 161.686C167.202 161.648 167.22 161.633 167.247 161.608C167.324 161.639 167.422 161.678 167.548 161.728C167.813 161.832 168.18 161.973 168.613 162.141C169.48 162.476 170.617 162.913 171.749 163.347C173.97 164.197 176.086 165.005 176.166 165.035C176.216 165.099 178.648 168.26 181.076 171.61C182.302 173.303 183.513 175.027 184.388 176.386C184.825 177.065 185.179 177.653 185.404 178.091C185.516 178.311 185.596 178.495 185.637 178.621C185.474 178.607 185.216 178.559 184.888 178.476C184.225 178.308 183.28 178.001 182.16 177.595C179.919 176.781 176.967 175.562 174.04 174.207C171.112 172.852 168.208 171.361 166.069 170.006C165 169.329 164.121 168.684 163.535 168.122C162.971 167.581 162.751 167.137 162.754 166.888L162.754 166.888Z" fill="black"/>
<path d="M163.4 165.232L163.252 165.415C162.903 165.841 162.23 166.654 162.23 166.654L162.179 166.713L162.171 166.791C162.118 167.362 162.52 167.917 163.152 168.523C163.784 169.128 164.686 169.785 165.773 170.474C167.948 171.852 170.864 173.349 173.805 174.711C176.747 176.073 179.711 177.296 181.972 178.117C183.102 178.527 184.056 178.837 184.752 179.015C185.1 179.103 185.382 179.158 185.604 179.176C185.715 179.184 185.808 179.188 185.905 179.168C186.001 179.148 186.133 179.094 186.192 178.952C186.278 178.75 186.216 178.6 186.15 178.409C186.083 178.219 185.979 177.996 185.84 177.735C185.564 177.212 185.152 176.543 184.655 175.783L184.606 175.708L184.518 175.681C174.128 172.583 166.366 167.389 163.593 165.372L163.4 165.232ZM163.499 165.904C166.384 167.991 173.995 173.043 184.276 176.127C184.745 176.848 185.143 177.489 185.397 177.969C185.529 178.217 185.624 178.427 185.677 178.576C185.705 178.659 185.703 178.644 185.706 178.676C185.682 178.676 185.675 178.679 185.642 178.676C185.473 178.662 185.209 178.613 184.875 178.528C184.209 178.358 183.263 178.053 182.142 177.646C179.899 176.832 176.947 175.612 174.018 174.256C171.089 172.901 168.184 171.406 166.042 170.049C164.971 169.371 164.089 168.725 163.499 168.16C162.926 167.61 162.689 167.151 162.698 166.875C162.777 166.779 163.17 166.305 163.499 165.904L163.499 165.904Z" fill="black"/>
<path d="M166.221 156.715L164.696 157.8L166.921 161.813L169.151 162.484L174.236 160.753L172.707 157.135L166.221 156.715Z" fill="#56C596"/>
<path d="M160.739 151.279L166.719 162.069L166.837 162.104L176.351 164.967L170.726 151.669L160.739 151.279ZM161.787 151.927L170.316 152.259L175.287 164.015L167.132 161.562L161.787 151.927Z" fill="black"/>
<path d="M123.979 132.086C123.979 132.086 131.143 133.419 131.143 133.641C131.143 133.863 132.42 143.359 132.42 143.359C124.244 176.331 117.818 136.723 123.979 132.086Z" fill="#56C596"/>
<path d="M123.003 128.441L122.916 128.477C122.361 128.715 122.066 129.35 121.835 130.201C121.603 131.051 121.456 132.157 121.37 133.444C121.199 136.016 121.275 139.297 121.484 142.533C121.693 145.769 122.034 148.957 122.393 151.337C122.573 152.528 122.758 153.515 122.935 154.214C123.024 154.563 123.108 154.84 123.201 155.048C123.248 155.152 123.295 155.239 123.364 155.321C123.433 155.402 123.556 155.507 123.734 155.49C123.965 155.466 124.066 155.343 124.195 155.207C124.323 155.071 124.458 154.897 124.607 154.678C124.906 154.241 125.259 153.636 125.652 152.918C126.438 151.483 127.378 149.589 128.282 147.698C130.089 143.917 131.756 140.154 131.756 140.154L131.788 140.073L131.778 139.988C131.778 139.988 131.458 137.614 131.139 135.213C130.979 134.012 130.82 132.806 130.701 131.886C130.641 131.425 130.593 131.036 130.558 130.756C130.54 130.616 130.525 130.505 130.516 130.425C130.506 130.345 130.503 130.252 130.503 130.311C130.503 130.31 130.496 130.237 130.496 130.236C130.496 130.236 130.481 130.195 130.474 130.178C130.458 130.144 130.441 130.121 130.425 130.103C130.394 130.067 130.368 130.049 130.347 130.035C130.305 130.007 130.273 129.992 130.237 129.977C130.164 129.946 130.08 129.92 129.977 129.889C129.77 129.828 129.488 129.76 129.149 129.681C128.472 129.524 127.575 129.336 126.679 129.155C124.885 128.794 123.091 128.457 123.091 128.457L123.003 128.441ZM123.13 129.084C123.27 129.11 124.845 129.404 126.558 129.749C127.452 129.929 128.347 130.117 129.012 130.272C129.345 130.349 129.623 130.419 129.808 130.473C129.859 130.488 129.88 130.497 129.915 130.509C129.924 130.591 129.937 130.696 129.954 130.83C129.989 131.112 130.04 131.502 130.1 131.963C130.22 132.885 130.378 134.093 130.538 135.294C130.852 137.652 131.153 139.897 131.165 139.982C131.132 140.056 129.518 143.702 127.733 147.435C126.832 149.321 125.896 151.209 125.12 152.626C124.732 153.335 124.385 153.927 124.107 154.334C123.968 154.537 123.844 154.695 123.753 154.792C123.687 154.642 123.606 154.392 123.523 154.064C123.354 153.401 123.171 152.425 122.994 151.247C122.638 148.889 122.299 145.714 122.091 142.494C121.883 139.275 121.806 136.012 121.974 133.486C122.059 132.223 122.206 131.143 122.419 130.36C122.625 129.605 122.91 129.2 123.13 129.084L123.13 129.084Z" fill="black"/>
<path d="M123.01 128.495L122.937 128.525C122.411 128.751 122.116 129.369 121.886 130.213C121.656 131.058 121.509 132.163 121.424 133.447C121.252 136.015 121.328 139.296 121.536 142.53C121.745 145.765 122.086 148.953 122.445 151.332C122.624 152.521 122.808 153.506 122.985 154.203C123.074 154.551 123.158 154.824 123.249 155.028C123.294 155.13 123.339 155.213 123.402 155.289C123.465 155.364 123.574 155.454 123.727 155.439C123.946 155.417 124.049 155.29 124.184 155.141C124.319 154.991 124.464 154.793 124.628 154.547C124.955 154.054 125.345 153.373 125.776 152.574L125.821 152.493L125.803 152.404C123.561 141.796 124.417 132.495 124.864 129.095L124.894 128.861L124.663 128.815C124.122 128.712 123.085 128.511 123.085 128.511L123.01 128.495ZM123.114 129.028C123.236 129.051 123.845 129.169 124.354 129.267C123.899 132.798 123.093 141.898 125.295 152.404C124.886 153.16 124.509 153.818 124.209 154.27C124.053 154.504 123.917 154.687 123.811 154.805C123.753 154.869 123.765 154.859 123.738 154.877C123.727 154.856 123.722 154.853 123.709 154.823C123.64 154.669 123.557 154.412 123.472 154.079C123.303 153.412 123.12 152.436 122.942 151.256C122.586 148.897 122.247 145.719 122.039 142.498C121.831 139.277 121.755 136.012 121.924 133.482C122.008 132.217 122.155 131.134 122.37 130.345C122.578 129.579 122.868 129.152 123.114 129.028V129.028Z" fill="black"/>
<path d="M135.499 127.512L129.24 130.135L129.279 130.372L130.662 138.65L136.81 136.225L135.499 127.512ZM135.015 128.376L136.138 135.839L131.136 137.813L129.915 130.509L135.015 128.376Z" fill="black"/>
<path d="M119.093 110.915C119.093 110.915 119.249 115.071 121.581 117.181C123.914 119.291 145.131 132.503 145.131 132.503L155.183 161.873C155.183 161.873 171.36 154.805 172.145 154.177C172.931 153.549 155.811 124.335 155.026 123.707C154.24 123.079 136.463 100.633 136.463 100.633C128.654 101.436 124.05 106.405 119.093 110.915Z" fill="#56C596"/>
<path d="M157.246 127.178L141.237 130.063C143.512 131.493 145.13 132.503 145.13 132.503L148.579 142.58L158.658 129.514C158.119 128.613 157.69 127.908 157.246 127.178Z" fill="black" stroke="black" stroke-width="1.00157"/>
<path d="M127.956 103.223C124.563 105.27 121.77 108.071 118.889 110.692L118.786 110.786L118.789 110.925C118.789 110.925 118.903 115.166 121.377 117.405C122.013 117.98 123.757 119.179 126.077 120.716C128.397 122.253 131.268 124.104 134.067 125.888C139.617 129.425 144.792 132.647 144.88 132.702L155.002 162.282L155.305 162.149C155.305 162.149 159.351 160.383 163.495 158.536C165.567 157.613 167.66 156.671 169.29 155.919C170.105 155.543 170.803 155.214 171.325 154.959C171.585 154.831 171.801 154.723 171.968 154.634C172.135 154.545 172.241 154.489 172.335 154.414C172.429 154.338 172.457 154.24 172.468 154.173C172.479 154.106 172.475 154.052 172.468 153.998C172.454 153.889 172.425 153.778 172.38 153.644C172.291 153.375 172.142 153.021 171.942 152.586C171.543 151.715 170.934 150.517 170.179 149.096C168.669 146.254 166.577 142.524 164.436 138.792C162.295 135.06 160.106 131.327 158.401 128.488C157.549 127.068 156.819 125.872 156.275 125.008C156.003 124.576 155.778 124.229 155.606 123.976C155.52 123.849 155.449 123.748 155.389 123.667C155.329 123.587 155.3 123.536 155.216 123.469C155.23 123.48 155.089 123.34 154.918 123.144C154.748 122.948 154.516 122.675 154.236 122.339C153.677 121.667 152.917 120.741 152.029 119.645C150.253 117.453 147.96 114.591 145.689 111.746C144.373 110.098 144.118 109.772 143.085 108.472L142.616 108.857C143.624 110.125 143.902 110.478 145.215 112.123C147.486 114.969 149.78 117.834 151.558 120.028C152.447 121.125 153.206 122.054 153.769 122.729C154.05 123.067 154.284 123.342 154.46 123.544C154.636 123.746 154.725 123.853 154.837 123.943C154.802 123.915 154.855 123.964 154.905 124.031C154.956 124.098 155.024 124.195 155.106 124.317C155.271 124.56 155.492 124.904 155.762 125.333C156.301 126.19 157.031 127.382 157.882 128.799C159.583 131.634 161.771 135.365 163.91 139.094C166.049 142.822 168.14 146.55 169.644 149.382C170.396 150.798 171.004 151.989 171.393 152.839C171.588 153.264 171.727 153.604 171.802 153.832C171.829 153.911 171.838 153.955 171.848 154.001C171.8 154.031 171.777 154.047 171.682 154.098C171.526 154.182 171.315 154.291 171.058 154.417C170.545 154.668 169.849 154.993 169.036 155.368C167.412 156.118 165.315 157.062 163.245 157.984C159.256 159.761 155.644 161.338 155.362 161.461L145.383 132.303L145.292 132.244C145.292 132.244 139.988 128.944 134.394 125.378C131.597 123.595 128.727 121.746 126.412 120.213C124.098 118.679 122.316 117.437 121.786 116.957C119.659 115.033 119.432 111.261 119.42 111.036C122.319 108.391 125.085 105.64 128.426 103.663L127.956 103.223Z" fill="black"/>
<path d="M145.789 98.5377L134.353 98.9672L129.799 101.299L130.785 102.105C132.494 101.374 134.359 100.849 136.463 100.633C136.463 100.633 145.155 113.622 142.822 109.137C142.577 108.666 143.085 108.472 143.318 108.818C144.371 110.376 145.056 111.042 146.269 112.56L162.154 114.412L130.91 124.511C131.243 134.839 137.019 141.503 137.019 141.503C137.019 141.503 165.792 124.567 177.226 117.323C181.45 114.321 181.152 112.471 175.667 106.852C174.89 106.075 153.341 98.7482 153.341 98.7482L145.789 98.5377Z" fill="#56C596"/>
<path d="M145.789 98.5378L134.354 98.9673L129.799 101.299L130.785 102.105C130.795 102.102 130.805 102.097 130.815 102.094C126.168 104.073 122.722 107.614 119.093 110.916C119.093 110.916 119.249 115.072 121.581 117.182C121.834 117.411 122.313 117.773 122.961 118.232L152.946 98.7381L145.789 98.5378Z" fill="#5A7983"/>
<path d="M193.835 64.0812C191.665 57.1287 200.183 52.7657 201.251 59.0631C201.716 61.8035 199.937 65.1763 193.491 66.153L193.883 65.113C193.883 65.113 198.734 64.938 199.114 61.0564C199.495 57.1749 195.294 59.9828 195.096 62.3856C194.899 64.7884 193.835 64.0812 193.835 64.0812Z" fill="#ADD3D8"/>
<path d="M200.395 56.044C199.372 55.6325 198.177 55.8304 197.12 56.453C195.005 57.6981 193.366 60.682 194.49 64.2832L194.523 64.3839L194.61 64.4455C194.61 64.4455 195.007 64.7138 195.454 64.5234C195.678 64.4282 195.886 64.2232 196.036 63.9034C196.186 63.5836 196.293 63.1445 196.344 62.5204C196.429 61.4844 197.48 60.2123 198.402 59.748C198.863 59.5159 199.233 59.4966 199.444 59.6474C199.656 59.7982 199.846 60.2175 199.756 61.1375C199.578 62.9541 198.383 63.8665 197.182 64.3709C195.98 64.8752 194.815 64.9195 194.815 64.9195L194.614 64.9293L193.968 66.6401L194.481 66.5654C197.75 66.0699 199.879 64.9596 201.132 63.5853C202.385 62.211 202.742 60.5781 202.496 59.1248C202.217 57.4792 201.419 56.4555 200.395 56.044L200.395 56.044ZM200.168 56.6056C200.975 56.9299 201.64 57.7223 201.895 59.2254C202.113 60.5124 201.813 61.9348 200.681 63.1762C199.628 64.3316 197.736 65.2909 194.932 65.8122L195.055 65.4779C195.242 65.4682 196.211 65.4394 197.418 64.9325C198.737 64.379 200.157 63.2608 200.36 61.1959C200.46 60.1751 200.27 59.4933 199.795 59.154C199.319 58.8147 198.696 58.9209 198.129 59.2059C196.997 59.7759 195.849 61.1049 195.737 62.4717C195.689 63.0491 195.592 63.4235 195.487 63.6469C195.382 63.8703 195.284 63.9367 195.217 63.9651C195.132 64.0013 195.097 63.9688 195.045 63.9488C194.097 60.6731 195.59 58.0581 197.428 56.9756C198.363 56.4255 199.362 56.2812 200.168 56.6055L200.168 56.6056Z" fill="black"/>
<path d="M179.624 65.592C179.624 65.592 182.583 72.4168 188.54 72.4644C188.54 72.4644 193.417 70.5203 194.189 69.8551C194.884 69.2566 197.683 65.8967 195.702 60.4178C194.901 56.0475 183.044 64.0006 179.624 65.592Z" fill="#ADD3D8"/>
<path d="M193.169 58.1641L177.661 65.442L177.778 65.7115C177.778 65.7115 180.784 72.7197 186.972 72.7691H187.03L187.086 72.7463C187.086 72.7463 188.31 72.2593 189.631 71.688C190.291 71.4023 190.973 71.0939 191.546 70.8147C192.119 70.5355 192.565 70.3059 192.822 70.0843C193.275 69.6941 194.319 68.4812 194.841 66.4841C195.363 64.487 195.324 61.7266 193.552 58.3649L193.169 58.1641ZM193.108 58.9234C194.661 62.0248 194.727 64.5311 194.257 66.3315C193.771 68.1908 192.745 69.3516 192.426 69.6266C192.297 69.7376 191.839 69.997 191.28 70.2694C190.721 70.5417 190.043 70.8461 189.387 71.1297C188.115 71.6801 187.004 72.125 186.936 72.1523C181.453 72.076 178.709 66.1817 178.499 65.7212L193.108 58.9234Z" fill="#56C596"/>
<path d="M137.602 28.7636C137.602 28.7636 136.958 28.4546 136.339 28.8155C136.033 28.9941 135.875 29.2331 135.813 29.283C135.783 29.3079 135.815 29.2965 135.811 29.2959C135.805 29.2954 135.737 29.2767 135.613 29.1855C135.201 28.8838 134.703 28.9392 134.334 29.0329C133.964 29.1267 133.678 29.2829 133.678 29.2829C133.607 29.321 133.555 29.3854 133.532 29.462C133.509 29.5386 133.517 29.6213 133.555 29.6919C133.573 29.7272 133.599 29.7584 133.63 29.7837C133.661 29.809 133.697 29.8279 133.735 29.8394C133.773 29.8509 133.814 29.8546 133.853 29.8505C133.893 29.8464 133.932 29.8344 133.967 29.8153C133.967 29.8153 134.195 29.6936 134.483 29.6205C134.771 29.5474 135.075 29.5455 135.252 29.6757C135.423 29.8005 135.577 29.883 135.752 29.8997C135.928 29.9164 136.095 29.8367 136.197 29.7536C136.401 29.5875 136.48 29.4343 136.645 29.3381C136.969 29.1493 137.346 29.3121 137.346 29.3121C137.419 29.346 137.502 29.3496 137.578 29.3222C137.653 29.2948 137.715 29.2387 137.749 29.166C137.783 29.0932 137.786 29.01 137.759 28.9345C137.732 28.8591 137.675 28.7976 137.603 28.7635L137.602 28.7636ZM143.792 25.1961C143.632 25.3867 143.555 25.5648 143.515 25.6136C143.507 25.6239 143.51 25.6237 143.51 25.6255C143.5 25.6257 143.433 25.6213 143.298 25.5603C142.832 25.3512 142.357 25.509 142.015 25.6779C141.674 25.8469 141.426 26.0593 141.426 26.0593C141.365 26.1113 141.327 26.1852 141.321 26.2651C141.314 26.3449 141.339 26.424 141.391 26.4853C141.417 26.5158 141.448 26.5409 141.484 26.5591C141.519 26.5773 141.558 26.5884 141.598 26.5916C141.638 26.5948 141.678 26.59 141.716 26.5777C141.754 26.5654 141.789 26.5456 141.819 26.5197C141.819 26.5197 142.018 26.3533 142.284 26.2216C142.551 26.0899 142.847 26.0249 143.048 26.1151C143.24 26.2016 143.409 26.2497 143.584 26.2293C143.759 26.209 143.906 26.0957 143.988 25.9931C144.153 25.7881 144.198 25.6218 144.34 25.4932C144.37 25.4652 144.402 25.4423 144.436 25.4219C144.228 25.3397 144.013 25.264 143.792 25.196L143.792 25.1961Z" fill="#56C596"/>
<path d="M139.186 24.5889C134.13 25.2657 131.414 27.6637 129.999 29.8934C128.585 32.1231 128.451 34.2013 128.451 34.2013L128.428 34.5227H128.753L138.849 34.5194L151.25 34.5227L151.191 34.1721C151.191 34.1721 150.76 31.4489 149.046 28.8871C147.331 26.3252 144.272 23.9081 139.186 24.5889H139.186ZM139.267 25.1927C144.137 24.5408 146.912 26.7888 148.542 29.2247C149.994 31.3948 150.413 33.4382 150.503 33.9157H138.849H129.171C129.196 33.6413 129.286 32.1502 130.512 30.2181C131.845 28.1164 134.368 25.8486 139.267 25.1927Z" fill="black"/>
<path d="M143.919 28.5838C143.919 28.5838 143.224 28.4163 142.694 28.8985C142.432 29.1372 142.327 29.404 142.278 29.4656C142.253 29.4963 142.283 29.4784 142.277 29.4789C142.272 29.4794 142.201 29.4756 142.061 29.4123C141.595 29.2033 141.12 29.3615 140.778 29.5304C140.436 29.6993 140.189 29.9119 140.189 29.9119C140.128 29.9639 140.09 30.0378 140.084 30.1176C140.077 30.1973 140.102 30.2764 140.154 30.3377C140.18 30.3682 140.211 30.3934 140.247 30.4116C140.282 30.4299 140.321 30.441 140.361 30.4442C140.401 30.4474 140.441 30.4427 140.479 30.4303C140.517 30.418 140.552 30.3982 140.583 30.3722C140.583 30.3722 140.78 30.2055 141.047 30.0738C141.313 29.9421 141.61 29.8768 141.811 29.967C142.003 30.0535 142.171 30.1019 142.346 30.0816C142.522 30.0612 142.669 29.9483 142.751 29.8458C142.916 29.6407 142.961 29.4744 143.102 29.3458C143.379 29.0935 143.782 29.1739 143.782 29.1739C143.861 29.1918 143.943 29.178 144.011 29.1354C144.079 29.0929 144.127 29.0251 144.146 28.9469C144.164 28.8687 144.15 28.7865 144.107 28.7184C144.065 28.6504 143.997 28.6019 143.919 28.5838L143.919 28.5838Z" fill="#56C596"/>
<path d="M98.8127 23.2701C96.0363 24.8474 95.0596 28.3737 96.6287 31.1547C98.8799 35.1448 101.774 33.6144 103.663 36.9634C103.942 37.4576 104.564 37.6317 105.058 37.3529L107.667 35.8808C108.162 35.602 108.335 34.9789 108.056 34.4847C106.194 31.1828 108.816 29.1732 106.721 25.4607C105.149 22.6737 101.615 21.689 98.8279 23.2615C98.8231 23.2641 98.8177 23.2671 98.8124 23.2702L98.8127 23.2701Z" fill="#F09B00" fill-opacity="0.74"/>
<path d="M106.042 38.6984L107.985 37.1689C108.407 36.8368 109.014 36.9092 109.346 37.3312C109.678 37.7532 109.606 38.3603 109.184 38.6923L107.24 40.2219C106.818 40.554 106.211 40.4816 105.879 40.0596C105.547 39.6376 105.62 39.0305 106.042 38.6984Z" fill="#56C596"/>
<path d="M105.814 38.4115C105.238 38.8648 105.14 39.7099 105.593 40.2859C106.047 40.8619 106.889 40.9623 107.465 40.5091L109.409 38.9793C109.985 38.526 110.088 37.6815 109.635 37.1055C109.182 36.5295 108.334 36.4284 107.758 36.8817L105.814 38.4115ZM106.266 38.9858L108.21 37.456C108.478 37.2451 108.85 37.2894 109.061 37.5574C109.272 37.8254 109.225 38.1941 108.957 38.405L107.013 39.9348C106.745 40.1456 106.379 40.102 106.168 39.834C105.957 39.566 105.998 39.1967 106.266 38.9858Z" fill="#56C596"/>
<path d="M104.081 37.7744L107.548 35.046C107.97 34.7139 108.577 34.7863 108.909 35.2083C109.241 35.6303 109.169 36.2374 108.747 36.5694L105.28 39.2978C104.858 39.6299 104.251 39.5575 103.919 39.1355C103.587 38.7135 103.659 38.1064 104.081 37.7744Z" fill="#56C596"/>
<path d="M103.854 37.4877C103.278 37.9409 103.18 38.7861 103.633 39.3621C104.086 39.9381 104.928 40.0385 105.504 39.5852L108.972 36.8567C109.548 36.4035 109.651 35.559 109.198 34.983C108.745 34.4069 107.897 34.3059 107.321 34.7591L103.854 37.4877ZM104.306 38.062L107.773 35.3335C108.041 35.1226 108.413 35.1669 108.624 35.4349C108.835 35.7029 108.788 36.0716 108.52 36.2824L105.053 39.0109C104.785 39.2218 104.418 39.1781 104.207 38.9102C103.997 38.6422 104.038 38.2728 104.306 38.062Z" fill="#56C596"/>
<path d="M132.684 59.8777C132.684 59.8777 117.915 66.3887 117.052 67.174C116.188 67.9593 111.633 84.8434 111.633 84.8434C111.633 84.8434 113.361 86.0214 121.135 86.257L119.093 110.916C119.093 110.916 119.486 111.78 120.193 111.23C120.9 110.68 129.241 100.192 153.341 98.7485L152.008 78.8688L158.45 77.7582C158.45 77.7582 152.675 65.8749 151.897 65.0975C151.12 64.3201 142.124 60.433 142.124 60.433L132.684 59.8777Z" fill="#F09B00" fill-opacity="0.74"/>
<path d="M143.075 91.7078L132.599 94.306L119.676 103.87L119.093 110.915C119.093 110.915 119.486 111.779 120.193 111.23C120.638 110.884 124.111 106.602 132.63 103.115L143.075 91.7078Z" fill="#F42A1B" fill-opacity="0.31"/>
<path d="M132.684 59.8774C132.684 59.8774 131.763 60.2847 130.576 60.8128C131.412 63.4377 133.519 68.5012 137.627 69.762C143.235 71.4835 145.345 67.3187 144.901 64.209C144.739 63.0764 144.51 62.1331 144.286 61.3849C143.079 60.8504 142.124 60.4332 142.124 60.4332L132.684 59.8774Z" fill="#F42A1B" fill-opacity="0.31"/>
<path d="M130.81 60.709C130.548 60.8254 130.539 60.8298 130.228 60.9684C130.819 62.5091 131.746 64.6283 132.619 65.9639C133.787 67.7507 135.388 69.3912 137.537 70.0507C140.417 70.9347 142.497 70.3066 143.751 69.0088C145.004 67.7111 145.437 65.8055 145.202 64.1653C145.103 63.4731 144.842 62.4553 144.584 61.5181C144.35 61.4141 144.063 61.284 143.854 61.1917C144.132 62.1647 144.487 63.4531 144.601 64.2529C144.811 65.7224 144.409 67.4554 143.316 68.5871C142.223 69.7188 140.444 70.311 137.716 69.4735C135.757 68.8722 134.25 67.3487 133.128 65.6324C132.276 64.3286 131.365 62.1873 130.81 60.709Z" fill="#F42A1B" fill-opacity="0.31"/>
<path d="M138.015 74.7596C138.015 74.7596 143.679 89.7526 145.567 98.8595C145.567 98.8595 154.229 96.9715 157.006 100.97C157.006 100.97 155.895 83.6443 153.452 73.0937C153.452 73.0937 144.123 68.6513 138.015 74.7596Z" fill="#A0BFCE"/>
<path d="M160.782 66.8743C159.338 73.5935 161.096 90.1 161.781 94.4171C161.781 94.4171 158.117 95.9719 157.006 100.97C157.006 100.97 155.229 83.7554 153.452 73.0937C153.452 73.0937 156.229 64.6532 160.782 66.8743Z" fill="#ADD3D8"/>
<path d="M132.58 49.9849L132.525 50.3485L132.37 59.919L132.406 60.0001C132.406 60.0001 133.332 62.0793 134.779 64.0483C135.502 65.0328 136.357 65.9938 137.314 66.6616C138.271 67.3295 139.355 67.7076 140.473 67.4473C141.615 67.1813 142.275 66.2198 142.589 65.045C142.904 63.8701 142.916 62.4449 142.807 61.0552C142.589 58.2757 141.862 55.6338 141.862 55.6338L141.82 55.4812L132.58 49.9849ZM133.07 50.8029L141.301 55.939C141.338 56.0766 141.997 58.4711 142.203 61.1007C142.309 62.4527 142.286 63.8307 142.002 64.8892C141.718 65.9477 141.218 66.6504 140.333 66.8565C139.424 67.0681 138.532 66.7725 137.661 66.165C136.791 65.5574 135.968 64.6401 135.269 63.688C133.894 61.8166 133.03 59.8897 133 59.8216L133.07 50.8029Z" fill="black"/>
<path d="M132.525 50.3486L132.323 57.5294C137.162 59.0961 141.121 57.4334 142.112 56.9647C142.012 56.3865 141.915 55.9149 141.82 55.4814C141.341 54.8295 140.619 54.1668 139.868 53.5694L132.525 50.3486Z" fill="#56C596"/>
<path d="M134.191 43.7717C135.077 43.9146 135.469 44.3815 135.66 42.7724L136.527 35.4867C136.527 35.4867 140.847 38.4432 147.177 37.9989C153.508 37.5547 160.227 31.6685 155.895 27.6149C151.564 23.5612 147.455 30.3358 143.512 31.7796C139.57 33.2234 133.295 33.2789 133.295 33.2789C133.295 33.2789 131.056 31.2989 128.87 32.7381C125.571 34.9109 126.647 39.214 129.824 41.7472C125.369 44.7099 127.346 49.0619 130.102 47.3001C129.336 50.3003 132.339 50.7168 132.253 46.7935C132.233 45.8883 134.1 45.0272 134.191 43.7717Z" fill="#56C596"/>
<path d="M130.078 41.2391C129.353 41.6097 129.448 43.656 130.706 43.1435C132.121 42.6577 132.012 42.8883 132.012 42.8883L132.414 43.1435L132.345 42.1226L131.197 41.2195L130.117 41.249L130.078 41.2391Z" fill="#F09B00" fill-opacity="0.74"/>
<path d="M130.954 38.2496C130.004 38.2732 129.224 38.8225 128.711 39.5939C128.198 40.3653 127.93 41.3645 127.945 42.3854C127.961 43.4063 128.262 44.4534 128.932 45.2946C129.378 45.855 129.99 46.3147 130.767 46.6098C131.259 46.8182 131.466 46.2483 131.075 46.0821C130.349 45.8279 129.804 45.4179 129.406 44.9175C128.834 44.1988 128.563 43.2823 128.549 42.3759C128.536 41.4696 128.786 40.5777 129.218 39.928C129.65 39.2783 130.241 38.875 130.971 38.8569C131.718 38.8384 132.237 39.1484 132.659 39.6617C133.081 40.1751 133.377 40.9023 133.571 41.6424C133.744 42.2992 133.837 42.9484 133.887 43.4702C133.942 44.0147 134.536 43.8733 134.5 43.4255C134.447 42.9135 134.324 42.1187 134.158 41.4861C133.951 40.6954 133.635 39.8943 133.126 39.2752C132.617 38.6561 131.887 38.2265 130.954 38.2496V38.2496ZM150.571 37.3229C150.404 37.3374 150.244 37.4979 150.287 37.8185C150.295 38.3261 150.243 38.9431 150.148 39.6222L150.669 40.2527C150.838 39.2899 150.93 38.4256 150.901 37.7008C150.914 37.4394 150.739 37.3084 150.571 37.3229ZM148.597 45.8907C148.428 46.4274 148.253 46.9643 148.075 47.4952C147.359 49.6333 146.593 51.6747 145.978 53.2122C145.67 53.981 145.401 54.6223 145.196 55.0881C145.094 55.3211 145.005 55.5117 144.939 55.6473C144.873 55.7828 144.805 55.8868 144.829 55.8577C144.838 55.8445 144.74 55.9297 144.579 56.0037C144.417 56.0778 144.191 56.1588 143.916 56.2348C143.366 56.3868 142.622 56.5189 141.778 56.556C140.089 56.6304 138.003 56.3311 136.184 55.1276C133.316 53.2297 132.572 49.658 132.387 48.2579C132.358 47.7426 131.699 47.7295 131.768 48.27C131.949 49.7381 132.713 53.5597 135.847 55.6336C137.804 56.9291 140.022 57.2384 141.803 57.16C142.694 57.1207 143.477 56.9845 144.076 56.819C144.375 56.7362 144.631 56.6485 144.833 56.5561C145.035 56.4638 145.182 56.3869 145.304 56.2349C145.382 56.1364 145.413 56.0597 145.485 55.9128C145.556 55.7659 145.646 55.5697 145.751 55.3322C145.96 54.857 146.231 54.2104 146.54 53.4365C147.159 51.8887 147.929 49.8384 148.65 47.6868C148.825 47.1626 148.998 46.6325 149.164 46.1021L148.597 45.8907Z" fill="black"/>
<path d="M149.154 38.7586C148.375 38.6019 147.602 38.9034 146.996 39.481C146.389 40.0587 145.933 40.9153 145.751 41.9198C145.569 42.9243 145.694 43.8954 146.056 44.6681C146.418 45.4407 147.03 46.024 147.808 46.1808C148.587 46.3375 149.363 46.0339 149.969 45.4562C150.576 44.8786 151.029 44.024 151.211 43.0196C151.393 42.0151 151.271 41.0418 150.909 40.2692C150.548 39.4965 149.932 38.9153 149.154 38.7586ZM149.064 39.2532C149.657 39.3727 150.146 39.8176 150.456 40.4795C150.766 41.1414 150.883 42.012 150.718 42.9203C150.554 43.8286 150.14 44.5924 149.621 45.0873C149.101 45.5821 148.491 45.8056 147.898 45.6861C147.305 45.5666 146.819 45.1223 146.509 44.4604C146.199 43.7985 146.079 42.9274 146.244 42.0191C146.408 41.1107 146.824 40.3475 147.344 39.8527C147.863 39.3578 148.471 39.1337 149.064 39.2532Z" fill="black"/>
<path d="M143.717 44.9393C143.717 44.9393 145.963 45.3507 148.304 44.971C150.646 44.5913 151.468 45.0342 151.247 46.0783C151.025 47.1225 148.684 48.9892 146.343 48.6412C144.001 48.2931 143.59 45.319 143.717 44.9393V44.9393Z" fill="#56C596"/>
<path d="M141.069 37.4705C138.817 37.4705 136.985 39.302 136.985 41.5538C136.985 43.8057 138.817 45.6345 141.069 45.6345C143.321 45.6345 145.152 43.8057 145.152 41.5538C145.152 39.302 143.321 37.4705 141.069 37.4705ZM141.069 37.9732C143.049 37.9731 144.649 39.5735 144.649 41.5538C144.649 43.5342 143.049 45.1345 141.069 45.1345C139.088 45.1345 137.488 43.5342 137.488 41.5538C137.488 39.5735 139.088 37.9732 141.069 37.9732Z" fill="black"/>
<path d="M147.86 82.0571C147.781 82.0455 147.668 82.0719 147.598 82.1284C147.515 82.1943 147.463 82.2561 147.373 82.3586C147.284 82.4612 147.176 82.5919 147.052 82.7417C146.804 83.0413 146.496 83.4202 146.191 83.7904C145.887 84.1607 145.585 84.5231 145.345 84.7937C145.224 84.929 145.118 85.0414 145.042 85.1149C145.009 85.1473 144.982 85.1688 144.965 85.1828C144.68 85.2384 142.841 85.5778 142.51 85.638L141.215 83.1119L141.05 83.9725C141.05 83.9725 140.868 84.9026 140.667 85.9008C140.472 86.8669 140.255 87.8812 140.182 88.1435C140.161 88.1567 140.143 88.1645 140.105 88.183C139.987 88.2402 139.804 88.3178 139.569 88.4063C139.099 88.5835 138.424 88.8117 137.621 89.0685C136.015 89.5823 133.885 90.2145 131.759 90.8319C127.702 92.0099 124.028 93.0235 123.665 93.1235L123.824 86.6533C123.627 86.6409 123.428 86.6274 123.225 86.612L123.045 93.9257L123.435 93.8192C123.435 93.8192 127.67 92.6531 131.927 91.4168C134.056 90.7987 136.19 90.1645 137.807 89.6475C138.615 89.389 139.296 89.16 139.784 88.9758C140.028 88.8837 140.223 88.8005 140.371 88.7284C140.446 88.6924 140.508 88.6603 140.566 88.6211C140.623 88.5818 140.696 88.567 140.748 88.3943C140.85 88.0536 141.059 87.0219 141.26 86.0211C141.373 85.4626 141.403 85.3085 141.475 84.9432L142.179 86.3131L142.4 86.2745C142.4 86.2745 144.819 85.8328 145.127 85.7712C145.248 85.7471 145.279 85.7093 145.325 85.6741C145.371 85.6389 145.413 85.6004 145.461 85.5539C145.558 85.4609 145.67 85.3415 145.796 85.2C146.048 84.9169 146.356 84.5469 146.662 84.1744C146.968 83.802 147.275 83.4273 147.519 83.1317C147.629 82.9992 147.72 82.8887 147.799 82.7976C147.848 82.8736 147.895 82.9378 147.961 83.057C148.159 83.4175 148.405 83.9357 148.643 84.4725C148.88 85.0092 149.107 85.5664 149.276 86.0048C149.36 86.224 149.43 86.4119 149.477 86.5528C149.5 86.6232 149.519 86.6822 149.529 86.722C149.534 86.739 149.535 86.7529 149.536 86.7624C149.535 86.7389 149.528 86.8275 149.5 86.9427C149.471 87.0651 149.424 87.229 149.369 87.4168C149.261 87.7926 149.112 88.2677 148.951 88.7344C148.79 89.2012 148.616 89.6609 148.464 90.0005C148.388 90.1702 148.318 90.3116 148.263 90.3999C148.236 90.443 148.202 90.4664 148.19 90.4755C147.994 90.5285 146.76 90.8267 145.556 91.1145C144.32 91.4099 143.134 91.6926 143.134 91.6926L143.075 91.7054L143.026 91.7415C135.186 97.2687 129.059 100.67 124.724 102.603C122.556 103.57 120.837 104.168 119.582 104.483C118.955 104.64 118.445 104.726 118.059 104.752C117.674 104.779 117.412 104.734 117.319 104.691C117.061 104.571 116.7 104.194 116.361 103.671C116.023 103.148 115.694 102.486 115.41 101.814C115.127 101.142 114.887 100.46 114.725 99.8926C114.563 99.3257 114.487 98.8429 114.495 98.7073C114.545 97.8558 114.948 88.4454 115.07 85.5805C114.86 85.5455 114.666 85.5139 114.469 85.48C114.346 88.3494 113.937 97.8929 113.891 98.6713C113.871 99.0077 113.975 99.4636 114.144 100.058C114.314 100.652 114.559 101.356 114.852 102.051C115.145 102.747 115.484 103.434 115.852 104.002C116.219 104.57 116.602 105.028 117.066 105.242C117.333 105.366 117.664 105.385 118.101 105.355C118.538 105.325 119.079 105.234 119.731 105.07C121.035 104.744 122.78 104.132 124.971 103.155C129.341 101.206 135.484 97.7912 143.318 92.2732C143.361 92.2632 144.485 91.9955 145.698 91.7054C146.935 91.4099 148.178 91.114 148.426 91.0432C148.661 90.9759 148.696 90.8497 148.776 90.7211C148.856 90.5925 148.936 90.4346 149.019 90.2504C149.184 89.882 149.361 89.4101 149.526 88.9328C149.691 88.4556 149.843 87.9729 149.954 87.5852C150.01 87.3913 150.055 87.2215 150.088 87.0853C150.12 86.9492 150.146 86.8771 150.146 86.7512C150.146 86.6629 150.132 86.6257 150.117 86.5665C150.101 86.5073 150.081 86.4391 150.055 86.3612C150.003 86.2053 149.93 86.0117 149.844 85.7866C149.67 85.3365 149.439 84.7746 149.198 84.2285C148.956 83.6825 148.707 83.154 148.493 82.7649C148.387 82.5704 148.29 82.4128 148.194 82.2908C148.147 82.2298 148.103 82.1741 148.026 82.1216C147.988 82.0953 147.939 82.0681 147.86 82.0572V82.0571Z" fill="black"/>
<path d="M130.223 60.6658C130.183 60.6666 130.143 60.6754 130.106 60.6917C130.106 60.6917 126.811 62.1254 123.484 63.6589C121.82 64.4256 120.149 65.2148 118.874 65.8664C118.236 66.1922 117.697 66.4844 117.303 66.7234C117.105 66.8429 116.944 66.9472 116.819 67.0448C116.693 67.1424 116.59 67.1908 116.527 67.4019C116.29 68.1926 111.342 84.7569 111.342 84.7569L111.255 85.0523L111.55 85.1368C111.55 85.1368 117.798 86.8726 126.944 86.9515L127.24 86.9548L127.564 75.901C127.565 75.8611 127.559 75.8214 127.544 75.7842C127.53 75.7469 127.509 75.7128 127.481 75.6839C127.454 75.6549 127.421 75.6317 127.384 75.6154C127.348 75.5992 127.309 75.5903 127.269 75.5893C127.189 75.5871 127.111 75.6165 127.053 75.6712C126.995 75.726 126.96 75.8015 126.957 75.8815L126.652 86.3218C118.101 86.2062 112.433 84.727 112.018 84.6142C112.191 84.034 116.878 68.3399 117.108 67.5741C117.074 67.6869 117.099 67.598 117.192 67.5254C117.286 67.4527 117.432 67.3554 117.617 67.2429C117.989 67.018 118.519 66.7308 119.15 66.4086C120.411 65.7642 122.077 64.9758 123.737 64.2108C127.057 62.6809 130.35 61.2469 130.35 61.2469C130.423 61.2146 130.481 61.1544 130.51 61.0795C130.539 61.0047 130.538 60.9213 130.506 60.8476C130.482 60.7929 130.442 60.7464 130.392 60.7141C130.342 60.6817 130.283 60.665 130.223 60.6658L130.223 60.6658Z" fill="#F42A1B" fill-opacity="0.31"/>
<path d="M123.225 86.6143L114.774 89.6337L115.07 85.5828L123.225 86.6143Z" fill="#56C596"/>
<path d="M159.852 75.1313L159.917 78.7186C159.661 78.6245 159.382 78.5166 158.836 78.3485C158.459 78.2321 158.081 78.1297 157.772 78.0758C157.617 78.0489 157.484 78.0293 157.35 78.0401C157.282 78.0451 157.212 78.0569 157.129 78.1017C157.045 78.1468 156.945 78.2588 156.928 78.3809C156.891 78.6393 156.829 79.5311 156.801 80.4911C156.787 80.971 156.783 81.4553 156.801 81.8643C156.819 82.2732 156.826 82.5731 156.957 82.8349C157.121 83.1632 157.559 83.8419 158.025 84.4776C158.258 84.7954 158.494 85.0935 158.707 85.3249C158.813 85.4406 158.912 85.5417 159.012 85.6203C159.112 85.6989 159.202 85.7794 159.395 85.7794H159.453L159.512 85.7566C161.798 84.8035 162.714 83.0082 162.839 81.2896C162.964 79.571 162.364 77.9282 161.622 77.0596L161.618 77.0563L159.852 75.1313ZM160.489 76.7221L161.171 77.4622L161.161 77.4556C161.753 78.1491 162.348 79.7039 162.235 81.2473C162.125 82.759 161.367 84.2418 159.369 85.1235C159.312 85.0769 159.24 85.0085 159.154 84.9157C158.968 84.7133 158.74 84.424 158.515 84.1171C158.065 83.5034 157.612 82.7924 157.499 82.5654C157.491 82.5487 157.421 82.2222 157.405 81.8382C157.388 81.4541 157.391 80.9782 157.405 80.5072C157.43 79.6537 157.489 78.914 157.515 78.66C157.565 78.6633 157.595 78.6602 157.668 78.6733C157.926 78.7183 158.292 78.8171 158.658 78.9298C159.388 79.1551 160.119 79.4297 160.119 79.4297L160.537 79.5888L160.531 79.1407L160.489 76.7221Z" fill="black"/>
<path d="M123.334 93.2267C123.316 93.2282 123.297 93.2315 123.279 93.2364L120.529 93.9538C120.491 93.9638 120.455 93.9813 120.423 94.0053C120.391 94.0293 120.364 94.0594 120.344 94.0938C120.324 94.1281 120.311 94.1661 120.305 94.2056C120.3 94.2451 120.302 94.2853 120.312 94.3239C120.322 94.3625 120.339 94.3987 120.363 94.4306C120.388 94.4624 120.418 94.4892 120.452 94.5094C120.486 94.5296 120.524 94.5428 120.564 94.5483C120.603 94.5538 120.643 94.5514 120.682 94.5414L123.432 93.8207C123.47 93.8107 123.507 93.7932 123.538 93.7692C123.57 93.7452 123.597 93.7151 123.617 93.6808C123.637 93.6464 123.651 93.6084 123.656 93.5689C123.662 93.5294 123.659 93.4892 123.649 93.4506C123.631 93.3825 123.59 93.3229 123.532 93.282C123.475 93.2411 123.405 93.2215 123.334 93.2266V93.2267Z" fill="black"/>
<path d="M134.012 40.9993L133.963 41.6064L137.044 41.8564L137.092 41.2493L134.012 40.9993ZM144.689 41.983L144.647 42.5868L146 42.6809L146.043 42.0739L144.689 41.983ZM130.085 40.8299C129.924 40.8748 129.829 41.0419 129.874 41.2032C129.919 41.3646 130.086 41.459 130.248 41.4142C130.746 41.2755 131.073 41.3487 131.342 41.5181C131.785 41.8589 131.981 42.1962 132.146 42.7394C132.114 42.7203 132.006 42.5803 131.971 42.5635C131.762 42.4604 131.5 42.4069 131.231 42.4758C130.054 42.7777 130.59 44.9579 131.89 44.719C132.055 44.6888 132.164 44.5302 132.134 44.3652C132.103 44.2001 131.945 44.091 131.78 44.1217C131.156 44.2363 131.027 43.1542 131.381 43.0634C131.495 43.0341 131.59 43.0505 131.702 43.1056C131.814 43.1608 131.934 43.2602 132.036 43.3718C132.241 43.595 132.367 43.849 132.367 43.849C132.515 44.1474 132.966 44.0251 132.942 43.6932C132.942 43.6932 132.913 43.5846 132.913 43.5763C132.905 43.4686 132.867 42.79 132.527 42.0538C132.343 41.6574 132.074 41.2628 131.666 41.0052C131.259 40.7477 130.715 40.6546 130.085 40.8299L130.085 40.8299Z" fill="black"/>
<path d="M164.693 113.178C164.666 113.182 164.64 113.188 164.615 113.197L161.593 114.143C161.486 114.177 161.396 114.252 161.344 114.352C161.292 114.452 161.282 114.569 161.315 114.676C161.349 114.783 161.424 114.873 161.524 114.925C161.624 114.977 161.74 114.987 161.848 114.954L164.866 114.011C164.92 113.995 164.97 113.968 165.014 113.932C165.057 113.896 165.093 113.852 165.119 113.802C165.146 113.752 165.162 113.697 165.167 113.641C165.172 113.584 165.165 113.528 165.148 113.474C165.118 113.379 165.057 113.298 164.974 113.244C164.89 113.19 164.791 113.167 164.693 113.178L164.693 113.178Z" fill="black"/>
<path d="M135.373 122.081L141.26 140.072L136.98 141.462C136.98 141.462 130.538 134.916 130.624 123.862L135.373 122.081Z" fill="#ADD3D8"/>
<path d="M135.337 121.779C135.313 121.782 135.289 121.789 135.266 121.798L130.517 123.577C130.459 123.599 130.41 123.638 130.375 123.688C130.341 123.739 130.322 123.798 130.322 123.86C130.235 135.033 136.763 141.676 136.763 141.676C136.802 141.716 136.853 141.744 136.908 141.757C136.963 141.771 137.02 141.768 137.074 141.75L141.353 140.361C141.391 140.348 141.426 140.329 141.456 140.303C141.487 140.277 141.512 140.245 141.53 140.21C141.548 140.174 141.559 140.135 141.562 140.096C141.565 140.056 141.56 140.016 141.548 139.978L135.662 121.987C135.64 121.92 135.596 121.862 135.537 121.824C135.478 121.787 135.407 121.77 135.337 121.779ZM135.182 122.473L140.876 139.877L137.097 141.104C136.903 140.904 130.955 134.691 130.952 124.064L135.182 122.473Z" fill="black"/>
<path d="M154.957 162.223L174.903 158.687C174.903 158.687 175.385 150.814 175.073 150.684C174.762 150.554 153.692 157.068 153.692 157.068L154.957 162.223Z" fill="#ADD3D8"/>
<path d="M175.119 150.384C175.101 150.381 175.088 150.382 175.077 150.381C175.053 150.38 175.035 150.38 175.02 150.381C174.989 150.384 174.963 150.389 174.933 150.395C174.873 150.404 174.802 150.419 174.713 150.44C174.535 150.482 174.289 150.545 173.985 150.629C173.375 150.795 172.527 151.042 171.517 151.339C169.496 151.932 166.833 152.732 164.18 153.539C158.872 155.151 153.603 156.781 153.603 156.781C153.529 156.804 153.466 156.854 153.428 156.921C153.39 156.989 153.379 157.068 153.397 157.143L154.663 162.296C154.681 162.371 154.727 162.436 154.792 162.479C154.856 162.521 154.934 162.538 155.01 162.524L174.957 158.987C175.024 158.975 175.086 158.941 175.131 158.89C175.176 158.839 175.203 158.774 175.207 158.706C175.207 158.706 175.326 156.736 175.407 154.748C175.448 153.753 175.481 152.755 175.482 151.991C175.483 151.608 175.475 151.287 175.458 151.044C175.449 150.923 175.439 150.825 175.42 150.735C175.411 150.691 175.401 150.65 175.379 150.599C175.357 150.548 175.329 150.463 175.191 150.405C175.19 150.404 175.137 150.387 175.119 150.385L175.119 150.384ZM174.847 151.03C174.85 151.054 174.851 151.061 174.854 151.088C174.87 151.301 174.876 151.616 174.875 151.99C174.874 152.739 174.844 153.731 174.803 154.721C174.727 156.581 174.629 158.211 174.615 158.429L155.183 161.873L154.057 157.276C154.318 157.196 159.185 155.689 164.354 154.118C167.006 153.312 169.67 152.51 171.688 151.918C172.696 151.622 173.542 151.379 174.144 151.215C174.444 151.133 174.683 151.069 174.848 151.03L174.847 151.03ZM147.243 99.1414C147.224 99.1404 147.204 99.1413 147.185 99.1441C137.703 100.257 130.908 103.274 126.434 106.02C124.197 107.393 122.538 108.697 121.415 109.659C120.854 110.14 120.427 110.536 120.13 110.808C119.981 110.945 119.864 111.051 119.786 111.117C119.775 111.125 119.772 111.125 119.763 111.133C119.699 111.118 119.61 111.08 119.523 110.987C119.451 110.911 119.431 110.875 119.406 110.835L119.714 107.715C119.722 107.635 119.698 107.555 119.646 107.493C119.595 107.431 119.522 107.392 119.442 107.384C119.361 107.376 119.282 107.4 119.22 107.452C119.157 107.503 119.118 107.576 119.11 107.656L118.792 110.887C118.787 110.949 118.8 111.011 118.831 111.065C118.831 111.065 118.924 111.235 119.081 111.403C119.239 111.57 119.48 111.775 119.825 111.763C119.986 111.758 120.002 111.712 120.045 111.682C120.089 111.652 120.131 111.621 120.178 111.581C120.273 111.501 120.39 111.394 120.539 111.257C120.837 110.983 121.259 110.594 121.811 110.12C122.916 109.174 124.544 107.889 126.749 106.536C131.159 103.831 137.868 100.847 147.256 99.7451C147.335 99.735 147.407 99.6943 147.456 99.6317C147.505 99.5692 147.528 99.4898 147.519 99.4107C147.512 99.3408 147.48 99.2757 147.43 99.2265C147.379 99.1773 147.313 99.1472 147.243 99.1413L147.243 99.1414Z" fill="black"/>
<path d="M103.921 58.0632C102.556 58.0632 101.441 59.1749 101.441 60.5402C101.441 61.9055 102.556 63.0204 103.921 63.0204C105.286 63.0204 106.398 61.9055 106.398 60.5402C106.398 59.1749 105.286 58.0632 103.921 58.0632ZM103.921 58.6703C104.958 58.6703 105.791 59.5028 105.791 60.5402C105.791 61.5776 104.958 62.4133 103.921 62.4133C102.883 62.4133 102.048 61.5776 102.048 60.5402C102.048 59.5028 102.883 58.6703 103.921 58.6703Z" fill="#F09B00" fill-opacity="0.74"/>
<path d="M178.791 132.148C177.425 132.148 176.31 133.259 176.31 134.625C176.31 135.99 177.425 137.105 178.791 137.105C180.156 137.105 181.267 135.99 181.267 134.625C181.267 133.259 180.156 132.148 178.791 132.148ZM178.791 132.755C179.828 132.755 180.66 133.587 180.66 134.625C180.66 135.662 179.828 136.498 178.791 136.498C177.753 136.498 176.917 135.662 176.917 134.625C176.917 133.587 177.753 132.755 178.791 132.755Z" fill="#56C596"/>
<path d="M157.826 57.0312C157.826 57.8019 157.202 58.4267 156.431 58.4267C155.66 58.4267 155.036 57.8019 155.036 57.0312C155.036 56.2605 155.66 55.6357 156.431 55.6357C157.202 55.6357 157.826 56.2605 157.826 57.0312Z" fill="#56C596"/>
<path d="M156.433 55.4426C155.557 55.4426 154.842 56.1558 154.842 57.0317C154.842 57.9076 155.557 58.6229 156.433 58.6229C157.309 58.6229 158.022 57.9076 158.022 57.0317C158.022 56.1558 157.309 55.4426 156.433 55.4426ZM156.433 55.8321C157.098 55.8321 157.632 56.3662 157.632 57.0317C157.632 57.6972 157.098 58.2334 156.433 58.2334C155.767 58.2334 155.231 57.6972 155.231 57.0317C155.231 56.3662 155.767 55.8321 156.433 55.8321Z" fill="#56C596"/>
<path d="M160.754 43.5479C160.545 43.5466 160.374 43.7153 160.373 43.9241V44.9986C160.374 45.2074 160.545 45.3761 160.754 45.3748C160.961 45.374 161.128 45.2058 161.129 44.9986V43.9241C161.128 43.7168 160.961 43.5488 160.754 43.5479ZM158.589 45.7081C158.382 45.7088 158.214 45.8771 158.213 46.0843C158.212 46.2931 158.381 46.4629 158.589 46.4639H159.664C159.873 46.4632 160.041 46.2931 160.04 46.0843C160.039 45.8771 159.871 45.709 159.664 45.7081H158.589ZM161.84 45.7081C161.632 45.7088 161.464 45.8771 161.463 46.0843C161.462 46.2931 161.631 46.4629 161.84 46.4639H162.914C163.123 46.4632 163.291 46.2931 163.289 46.0843C163.289 45.8771 163.121 45.709 162.914 45.7081H161.84ZM160.754 46.7981C160.545 46.7968 160.374 46.9646 160.373 47.1734V48.2479C160.374 48.4567 160.545 48.6254 160.754 48.6241C160.961 48.6234 161.128 48.4551 161.129 48.2479V47.1734C161.128 46.9662 160.961 46.799 160.754 46.7981ZM182.966 120.401C182.757 120.4 182.586 120.568 182.585 120.777V121.852C182.586 122.06 182.757 122.229 182.966 122.228C183.173 122.227 183.34 122.059 183.341 121.852V120.777C183.34 120.57 183.173 120.402 182.966 120.401ZM180.801 122.561C180.594 122.562 180.426 122.73 180.425 122.937C180.424 123.146 180.592 123.316 180.801 123.317H181.876C182.085 123.316 182.253 123.146 182.252 122.937C182.251 122.73 182.083 122.562 181.876 122.561H180.801ZM184.051 122.561C183.844 122.562 183.676 122.73 183.675 122.937C183.674 123.146 183.843 123.316 184.051 123.317H185.126C185.335 123.316 185.503 123.146 185.501 122.937C185.501 122.73 185.333 122.562 185.126 122.561H184.051ZM182.966 123.651C182.757 123.65 182.586 123.818 182.585 124.027V125.101C182.586 125.31 182.757 125.479 182.966 125.477C183.173 125.476 183.34 125.308 183.341 125.101V124.027C183.34 123.819 183.173 123.652 182.966 123.651Z" fill="black"/>
<path d="M205.035 89.9941C204.435 92.5915 196.804 92.4767 187.991 89.7377C179.178 86.9987 172.52 82.6727 173.12 80.0753C173.72 77.4779 181.351 77.5927 190.164 80.3317C198.977 83.0707 205.635 87.3967 205.035 89.9941Z" fill="#A0BFCE"/>
<path d="M191.383 81.845C186.959 80.4702 182.832 79.7515 179.716 79.7046C178.158 79.6812 176.853 79.8226 175.875 80.1479C174.898 80.473 174.204 80.9972 174.018 81.8023C173.832 82.6075 174.207 83.4634 174.913 84.3121C175.62 85.1608 176.689 86.0398 178.048 86.9231C180.767 88.6896 184.651 90.4606 189.075 91.8355C193.499 93.2104 197.626 93.929 200.742 93.9759C202.3 93.9993 203.604 93.8579 204.582 93.5327C205.56 93.2075 206.253 92.6834 206.439 91.8782C206.625 91.0731 206.251 90.2171 205.544 89.3684C204.837 88.5197 203.769 87.6407 202.409 86.7574C199.69 84.9909 195.807 83.2199 191.383 81.845ZM191.247 82.4314C195.637 83.7955 199.49 85.5558 202.154 87.2863C203.486 88.1516 204.52 89.0109 205.169 89.7895C205.817 90.568 206.048 91.2275 205.934 91.7211C205.82 92.2146 205.336 92.652 204.438 92.9503C203.541 93.2486 202.275 93.3926 200.749 93.3697C197.696 93.3238 193.599 92.6163 189.21 91.2522C184.82 89.8881 180.967 88.1247 178.304 86.3942C176.972 85.5289 175.94 84.6704 175.292 83.8919C174.643 83.1134 174.41 82.453 174.524 81.9594C174.638 81.4659 175.125 81.0293 176.022 80.7311C176.919 80.4328 178.183 80.2879 179.709 80.3109C182.762 80.3567 186.858 81.0673 191.247 82.4314Z" fill="#56C596"/>
<path d="M199.481 90.7841C199.077 92.5299 193.949 92.4528 188.025 90.6118C182.101 88.7709 177.626 85.8632 178.03 84.1174C178.433 82.3716 183.562 82.4488 189.485 84.2897C195.409 86.1307 199.884 89.0383 199.481 90.7841Z" fill="#F9F9F9"/>
<path d="M190.771 85.0964C187.791 84.1705 185.014 83.6863 182.909 83.6547C181.857 83.638 180.974 83.7345 180.304 83.9574C179.633 84.1803 179.133 84.5453 178.997 85.1375C178.86 85.7297 179.135 86.3387 179.619 86.9207C180.104 87.5026 180.827 88.0972 181.745 88.6938C183.582 89.8871 186.196 91.0785 189.175 92.0044C192.154 92.9302 194.934 93.4152 197.039 93.4469C198.091 93.4636 198.974 93.3671 199.644 93.1442C200.315 92.9212 200.815 92.5532 200.952 91.9609C201.089 91.3687 200.814 90.7628 200.329 90.1809C199.844 89.599 199.121 89.0044 198.203 88.4078C196.367 87.2145 193.75 86.0222 190.771 85.0964ZM190.635 85.6827C193.58 86.5978 196.167 87.7794 197.948 88.9367C198.838 89.5153 199.527 90.0902 199.954 90.6019C200.38 91.1137 200.512 91.5231 200.447 91.8038C200.382 92.0845 200.09 92.3657 199.501 92.5618C198.911 92.7579 198.066 92.856 197.046 92.8407C195.004 92.81 192.255 92.3331 189.31 91.418C186.366 90.5029 183.782 89.3221 182.001 88.1649C181.11 87.5863 180.421 87.0114 179.995 86.4996C179.568 85.9879 179.437 85.5753 179.502 85.2946C179.567 85.014 179.858 84.7358 180.447 84.5398C181.037 84.3437 181.882 84.2455 182.902 84.2609C184.944 84.2916 187.691 84.7676 190.635 85.6827Z" fill="black"/>
<path d="M193.19 58.4219C193.636 59.2946 190.578 61.5886 186.36 63.5458C182.142 65.503 178.361 66.3822 177.915 65.5095C177.469 64.6369 180.528 62.3428 184.746 60.3856C188.964 58.4284 192.745 57.5492 193.19 58.4219Z" fill="#56C596"/>
<path d="M184.608 60.1159C182.484 61.1018 180.652 62.1704 179.391 63.1162C178.761 63.5891 178.27 64.0281 177.953 64.4306C177.795 64.6318 177.68 64.8256 177.615 65.0238C177.55 65.2219 177.541 65.4419 177.641 65.6376C177.741 65.8334 177.928 65.9621 178.132 66.0356C178.336 66.1091 178.565 66.1397 178.829 66.145C179.357 66.1556 180.023 66.0613 180.803 65.88C182.361 65.5176 184.374 64.8024 186.499 63.8165C188.623 62.8306 190.455 61.762 191.716 60.8162C192.346 60.3434 192.833 59.9028 193.149 59.5003C193.308 59.2991 193.427 59.1068 193.492 58.9086C193.557 58.7105 193.566 58.4905 193.466 58.2948C193.366 58.099 193.179 57.9703 192.975 57.8968C192.771 57.8233 192.538 57.7912 192.274 57.7859C191.746 57.7753 191.084 57.8711 190.304 58.0524C188.746 58.4149 186.733 59.13 184.608 60.1159ZM184.885 60.6565C186.978 59.6852 188.965 58.9816 190.463 58.6334C191.212 58.4592 191.839 58.3762 192.277 58.385C192.497 58.3894 192.668 58.4179 192.773 58.4557C192.877 58.4935 192.904 58.5278 192.916 58.5503C192.927 58.5727 192.939 58.6139 192.905 58.7159C192.872 58.8179 192.79 58.9638 192.658 59.1309C192.395 59.4651 191.94 59.8848 191.334 60.3391C190.123 61.2478 188.316 62.3045 186.222 63.2759C184.129 64.2472 182.142 64.9508 180.644 65.299C179.896 65.4732 179.268 65.5562 178.83 65.5474C178.61 65.543 178.439 65.5145 178.335 65.4767C178.23 65.4389 178.203 65.4046 178.192 65.3821C178.18 65.3597 178.168 65.3185 178.202 65.2165C178.235 65.1145 178.317 64.9686 178.449 64.8015C178.712 64.4673 179.167 64.0476 179.773 63.5933C180.984 62.6846 182.791 61.6279 184.885 60.6565Z" fill="#56C596"/>
<path d="M189.627 62.0217C185.893 63.5583 183.218 62.2999 180.416 62.5538C175.494 63.0375 176.16 70.2676 177.455 69.1549C178.598 68.0755 178.41 65.7343 179.39 65.8203C180.37 65.9063 186.09 64.4326 189.627 62.0217Z" fill="#F09B00" fill-opacity="0.74"/>
<path d="M189.275 61.8757C187.469 62.6189 185.29 62.8486 183.768 62.6633C182.245 62.4781 180.799 62.118 179.33 62.251H179.327C178.023 62.3792 177.056 62.9689 176.402 63.7509C175.748 64.5328 175.397 65.4969 175.246 66.4031C175.096 67.3094 175.141 68.1559 175.331 68.7535C175.426 69.0523 175.546 69.3019 175.776 69.4612C175.89 69.5408 176.044 69.5877 176.194 69.5716C176.345 69.5549 176.479 69.4846 176.594 69.3865L176.601 69.3799L176.603 69.3766C177.26 68.756 177.497 67.8432 177.714 67.1399C177.822 66.7882 177.928 66.4851 178.035 66.312C178.141 66.1389 178.178 66.1127 178.304 66.1238C178.631 66.1524 179.172 66.0906 179.934 65.9614C180.696 65.8323 181.65 65.6283 182.687 65.3446C184.728 64.7861 187.072 63.91 188.878 62.7021C188.891 62.6966 188.903 62.698 188.917 62.6923L188.914 62.6859C188.932 62.6739 188.958 62.6721 188.975 62.6599C190.774 61.4963 189.952 61.7499 189.276 61.8758L189.275 61.8757ZM179.382 62.8549C180.715 62.7341 182.126 63.0732 183.693 63.2639C184.38 63.3475 185.112 63.3727 185.865 63.3386C184.718 63.8286 183.639 64.4562 182.527 64.7605C181.511 65.0387 180.574 65.2389 179.833 65.3643C179.093 65.4897 178.519 65.5312 178.356 65.5169C177.992 65.485 177.685 65.7187 177.515 65.9941C177.346 66.2695 177.242 66.6037 177.132 66.9615C176.913 67.6747 176.673 68.4692 176.191 68.9288C176.151 68.96 176.128 68.9679 176.129 68.9677C176.13 68.9676 176.14 68.9743 176.122 68.9611C176.086 68.9362 175.981 68.7984 175.908 68.5678C175.762 68.1076 175.706 67.3258 175.843 66.5032C175.979 65.6805 176.301 64.8147 176.865 64.1398C177.43 63.4655 178.227 62.9686 179.381 62.8542L179.382 62.8549Z" fill="black"/>
<path d="M197.877 74.2778C196.512 74.2778 195.397 75.3895 195.397 76.7548C195.397 78.12 196.512 79.235 197.877 79.235C199.242 79.235 200.354 78.12 200.354 76.7548C200.354 75.3895 199.242 74.2778 197.877 74.2778ZM197.877 74.8849C198.915 74.8849 199.747 75.7174 199.747 76.7548C199.747 77.7922 198.915 78.6279 197.877 78.6279C196.84 78.6279 196.004 77.7922 196.004 76.7548C196.004 75.7174 196.84 74.8849 197.877 74.8849Z" fill="#F09B00" fill-opacity="0.74"/>
<path d="M100.755 52.1356C100.715 52.1371 100.676 52.1464 100.64 52.1631C100.604 52.1797 100.571 52.2034 100.544 52.2326C100.544 52.2326 99.29 53.5937 97.4957 54.7355C95.6341 55.9202 93.9569 57.4334 93.9569 57.4334C93.9272 57.4601 93.9032 57.4924 93.886 57.5283C93.8689 57.5643 93.859 57.6033 93.8569 57.6431C93.8548 57.6829 93.8606 57.7228 93.874 57.7603C93.8873 57.7979 93.9079 57.8324 93.9346 57.862C93.9614 57.8915 93.9938 57.9154 94.0299 57.9323C94.066 57.9492 94.105 57.9589 94.1448 57.9607C94.1846 57.9625 94.2244 57.9565 94.2619 57.943C94.2993 57.9294 94.3338 57.9087 94.3632 57.8818C94.3632 57.8818 96.017 56.3968 97.8204 55.2492C99.691 54.0588 100.992 52.6423 100.992 52.6423C101.019 52.6129 101.04 52.5784 101.054 52.541C101.067 52.5035 101.073 52.4637 101.071 52.4239C101.069 52.3841 101.06 52.3451 101.043 52.309C101.026 52.2729 101.002 52.2406 100.973 52.2137C100.913 52.16 100.835 52.1319 100.755 52.1356L100.755 52.1356ZM100.976 54.9108C100.916 54.9137 100.859 54.9343 100.81 54.97L96.1455 58.4143C96.0812 58.4619 96.0383 58.5328 96.0261 58.6118C96.0139 58.6907 96.0333 58.7713 96.0802 58.8361C96.1037 58.8684 96.1334 58.8957 96.1676 58.9165C96.2017 58.9372 96.2397 58.951 96.2792 58.9571C96.3187 58.9632 96.359 58.9614 96.3978 58.9518C96.4366 58.9422 96.4732 58.9251 96.5053 58.9014L101.17 55.4596C101.202 55.4361 101.23 55.4064 101.251 55.3722C101.271 55.3381 101.285 55.3002 101.291 55.2606C101.297 55.2211 101.296 55.1808 101.286 55.142C101.276 55.1032 101.259 55.0666 101.236 55.0345C101.206 54.994 101.167 54.9615 101.121 54.94C101.076 54.9184 101.026 54.9084 100.976 54.9108L100.976 54.9108ZM127.299 53.7062C127.259 53.7077 127.22 53.717 127.183 53.7337C127.147 53.7503 127.115 53.774 127.087 53.8032C127.087 53.8032 125.833 55.1643 124.039 56.3062C122.178 57.4908 120.5 59.0041 120.5 59.0041C120.471 59.0307 120.447 59.063 120.429 59.0989C120.412 59.1349 120.402 59.1739 120.4 59.2137C120.398 59.2535 120.404 59.2934 120.417 59.3309C120.431 59.3685 120.451 59.4031 120.478 59.4327C120.505 59.4621 120.537 59.486 120.573 59.5029C120.609 59.5198 120.648 59.5295 120.688 59.5313C120.728 59.5332 120.768 59.5271 120.805 59.5136C120.843 59.5001 120.877 59.4793 120.907 59.4524C120.907 59.4524 122.56 57.9674 124.364 56.8198C126.234 55.6294 127.536 54.2129 127.536 54.2129C127.563 54.1835 127.583 54.1491 127.597 54.1116C127.611 54.0741 127.617 54.0343 127.615 53.9945C127.613 53.9547 127.603 53.9157 127.586 53.8796C127.569 53.8436 127.545 53.8112 127.516 53.7843C127.457 53.7306 127.379 53.7026 127.299 53.7062L127.299 53.7062ZM127.519 56.4814C127.46 56.4843 127.402 56.505 127.354 56.5406L122.689 59.985C122.625 60.0325 122.582 60.1034 122.569 60.1824C122.557 60.2613 122.577 60.342 122.624 60.4067C122.647 60.439 122.677 60.4663 122.711 60.4871C122.745 60.5078 122.783 60.5217 122.823 60.5277C122.862 60.5338 122.902 60.532 122.941 60.5224C122.98 60.5129 123.017 60.4957 123.049 60.472L127.714 57.0302C127.746 57.0067 127.773 56.977 127.794 56.9428C127.815 56.9087 127.829 56.8708 127.835 56.8313C127.841 56.7917 127.839 56.7514 127.829 56.7126C127.82 56.6738 127.803 56.6373 127.779 56.6051C127.749 56.5646 127.71 56.5322 127.665 56.5106C127.62 56.489 127.57 56.479 127.52 56.4814L127.519 56.4814Z" fill="#ADD3D8"/>
<path d="M212.815 119.508C212.762 119.509 212.709 119.525 212.664 119.553C212.618 119.581 212.58 119.62 212.555 119.667L212.535 119.702L192.856 129.815C192.801 129.844 192.756 129.889 192.727 129.944C192.698 129.999 192.687 130.061 192.694 130.123C192.702 130.185 192.729 130.242 192.77 130.288C192.812 130.335 192.867 130.367 192.927 130.381L200.661 132.208L203.521 140.579L203.504 140.606C203.483 140.64 203.468 140.677 203.462 140.717C203.455 140.756 203.456 140.796 203.465 140.835C203.473 140.874 203.49 140.911 203.513 140.944C203.536 140.976 203.565 141.004 203.599 141.025C203.667 141.068 203.749 141.082 203.827 141.065C203.906 141.047 203.974 140.999 204.017 140.931L207.753 134.981L213.023 137.522C213.07 137.544 213.121 137.554 213.173 137.551C213.225 137.548 213.275 137.531 213.318 137.503C213.362 137.476 213.398 137.437 213.422 137.391C213.446 137.346 213.459 137.294 213.458 137.243L213.128 120.038C213.173 119.973 213.191 119.892 213.177 119.814C213.164 119.735 213.12 119.665 213.055 119.619C213.026 119.584 212.989 119.555 212.948 119.536C212.906 119.517 212.861 119.507 212.815 119.508L212.815 119.508ZM212.539 120.959L212.841 136.759L205.741 133.338L212.539 120.959ZM211.199 121.072L200.763 131.608L193.866 129.978L211.199 121.072ZM211.309 121.898L205.004 133.156C204.988 133.184 204.977 133.215 204.971 133.247L203.748 139.363L201.274 132.12L211.309 121.898ZM205.463 133.877L207.204 134.717L204.403 139.175L205.463 133.877Z" fill="#3FBD6D"/>
</svg>
